<svg xmlns="http://www.w3.org/2000/svg" viewBox="0 0 100 100">
  <path fill="#000" d="M45.5 92.2 L46.0 92.4 L46.8 92.8 L47.7 93.2 L48.8 93.6 L50.0 93.9 L51.2 93.9 L52.4 93.5 L53.4 93.0 L54.4 92.3 L55.3 91.5 L56.1 90.7 L56.7 89.8 L57.2 89.0 L57.6 88.2 L57.8 87.3 L57.9 86.4 L57.9 85.3 L57.9 84.0 L57.8 82.4 L57.7 80.5 L57.5 78.4 L57.2 76.3 L57.0 74.1 L56.7 71.9 L56.5 69.7 L56.2 67.4 L55.9 65.1 L55.7 62.8 L55.4 60.4 L55.1 57.9 L54.9 55.3 L54.7 52.7 L54.6 49.9 L54.4 47.2 L54.2 44.5 L54.1 41.9 L54.0 39.4 L53.8 36.9 L53.7 34.4 L53.6 32.1 L53.5 29.9 L53.4 28.0 L53.3 26.2 L53.3 24.6 L53.2 23.1 L53.2 21.8 L53.1 20.8 L53.1 20.0 L50.9 20.0 L50.9 20.8 L51.0 21.9 L51.0 23.2 L51.1 24.6 L51.1 26.3 L51.2 28.0 L51.3 30.0 L51.4 32.2 L51.5 34.6 L51.6 37.0 L51.8 39.5 L51.9 42.1 L52.0 44.6 L52.2 47.3 L52.3 50.1 L52.5 52.8 L52.7 55.5 L52.9 58.1 L53.1 60.6 L53.3 63.0 L53.6 65.4 L53.8 67.7 L54.1 69.9 L54.3 72.1 L54.5 74.3 L54.7 76.5 L54.8 78.7 L55.0 80.7 L55.1 82.5 L55.1 84.0 L55.1 85.2 L55.0 86.1 L54.9 86.8 L54.8 87.2 L54.6 87.7 L54.3 88.2 L53.8 88.8 L53.2 89.4 L52.6 90.0 L51.9 90.5 L51.2 90.9 L50.8 91.1 L50.3 91.1 L49.6 91.0 L48.7 90.7 L47.9 90.4 L47.1 90.0 L46.5 89.8 Z M53.1 20.0 L53.1 19.3 L53.1 18.3 L53.2 17.0 L53.2 15.8 L53.3 14.7 L53.5 13.8 L53.7 13.0 L54.0 12.2 L54.4 11.5 L54.8 10.9 L55.1 10.5 L55.3 10.3 L55.5 10.2 L55.8 10.3 L56.2 10.4 L56.6 10.7 L57.0 11.0 L57.3 11.5 L57.5 12.0 L57.8 12.6 L57.9 13.3 L58.0 14.1 L58.1 15.0 L58.0 15.9 L57.9 17.0 L57.6 18.2 L57.3 19.6 L56.9 20.9 L56.4 22.2 L55.9 23.5 L55.2 24.8 L54.4 26.1 L53.5 27.4 L52.6 28.7 L51.7 30.0 L50.8 31.2 L50.1 32.3 L49.3 33.3 L48.5 34.3 L47.8 35.3 L47.1 36.3 L46.5 37.3 L46.1 38.5 L45.8 39.6 L45.6 40.6 L45.5 41.6 L45.4 42.3 L45.3 42.8 L48.7 43.2 L48.8 42.7 L48.8 41.9 L48.9 41.1 L49.0 40.3 L49.2 39.4 L49.5 38.7 L49.8 37.9 L50.4 37.0 L51.0 36.1 L51.7 35.0 L52.4 33.9 L53.2 32.8 L53.9 31.5 L54.8 30.2 L55.7 28.8 L56.6 27.4 L57.4 25.9 L58.1 24.5 L58.6 23.0 L59.1 21.5 L59.4 20.1 L59.7 18.6 L59.9 17.3 L60.0 16.1 L60.0 14.9 L59.9 13.9 L59.7 12.9 L59.4 12.0 L59.1 11.2 L58.7 10.5 L58.2 9.9 L57.6 9.4 L57.0 9.0 L56.3 8.7 L55.5 8.6 L54.7 8.7 L54.0 9.2 L53.4 9.8 L52.8 10.5 L52.3 11.4 L51.9 12.3 L51.5 13.2 L51.3 14.4 L51.1 15.6 L51.0 17.0 L51.0 18.2 L50.9 19.2 L50.9 20.0 Z M46.5 44.6 L47.3 44.9 L48.4 45.2 L49.6 45.6 L50.8 46.1 L52.0 46.6 L53.1 47.2 L54.1 47.9 L55.2 48.6 L56.3 49.5 L57.2 50.4 L58.0 51.3 L58.6 52.2 L59.1 53.1 L59.5 54.2 L59.8 55.4 L60.0 56.6 L60.1 57.8 L60.1 58.9 L59.9 60.0 L59.7 61.2 L59.4 62.4 L58.9 63.6 L58.4 64.7 L57.9 65.7 L57.2 66.6 L56.5 67.5 L55.6 68.3 L54.6 69.1 L53.7 69.8 L52.9 70.3 L52.2 70.6 L51.4 70.8 L50.4 71.0 L49.4 71.0 L48.5 71.1 L47.8 71.2 L48.2 75.8 L48.8 75.8 L49.7 75.8 L50.8 75.7 L52.2 75.6 L53.7 75.3 L55.1 74.7 L56.4 73.9 L57.6 73.0 L58.9 72.0 L60.1 70.9 L61.2 69.7 L62.1 68.3 L62.9 66.9 L63.6 65.5 L64.1 63.9 L64.6 62.3 L64.8 60.7 L64.9 59.1 L64.9 57.5 L64.7 55.9 L64.3 54.3 L63.8 52.7 L63.2 51.2 L62.4 49.8 L61.3 48.5 L60.1 47.3 L58.8 46.3 L57.5 45.4 L56.2 44.6 L54.9 43.8 L53.5 43.2 L52.1 42.6 L50.6 42.2 L49.3 41.9 L48.3 41.6 L47.5 41.4 Z M48.9 71.3 L48.0 71.0 L46.9 70.6 L45.6 70.1 L44.3 69.6 L43.3 69.1 L42.5 68.5 L41.9 67.7 L41.2 66.8 L40.6 65.6 L40.1 64.5 L39.7 63.3 L39.4 62.3 L39.3 61.2 L39.4 60.1 L39.5 58.9 L39.8 57.8 L40.1 56.7 L40.5 55.8 L41.0 55.0 L41.6 54.1 L42.3 53.4 L43.0 52.8 L43.7 52.3 L44.4 51.9 L45.2 51.8 L46.1 51.8 L47.1 51.9 L48.1 52.1 L49.1 52.4 L49.9 52.7 L50.5 53.1 L51.1 53.5 L51.6 54.1 L52.1 54.7 L52.4 55.3 L52.6 55.8 L52.6 56.2 L52.6 56.8 L52.4 57.4 L52.1 58.1 L51.8 58.7 L51.6 59.0 L51.5 59.2 L51.3 59.2 L51.0 59.3 L50.6 59.4 L50.2 59.4 L49.8 59.5 L50.2 61.7 L50.4 61.7 L50.8 61.7 L51.4 61.6 L52.0 61.5 L52.8 61.1 L53.4 60.6 L53.9 59.9 L54.3 59.1 L54.7 58.3 L55.0 57.3 L55.1 56.3 L55.0 55.2 L54.7 54.3 L54.2 53.4 L53.6 52.5 L52.9 51.7 L52.1 50.9 L51.1 50.3 L50.1 49.8 L48.9 49.4 L47.6 49.1 L46.3 48.9 L44.9 48.8 L43.6 49.1 L42.3 49.5 L41.2 50.2 L40.1 51.0 L39.1 52.0 L38.3 53.1 L37.5 54.2 L36.9 55.4 L36.4 56.8 L35.9 58.2 L35.6 59.7 L35.5 61.2 L35.6 62.7 L35.8 64.3 L36.3 65.8 L36.9 67.4 L37.6 68.8 L38.4 70.2 L39.5 71.5 L40.8 72.7 L42.3 73.6 L43.8 74.3 L45.2 74.9 L46.4 75.3 L47.1 75.7 Z M39.5 88 A4.5 4.5 0 1 1 48.5 88 A4.5 4.5 0 1 1 39.5 88 Z M46.0 60 A3.0 3.0 0 1 1 52.0 60 A3.0 3.0 0 1 1 46.0 60 Z"/>
</svg>
