<svg version="1.0" xmlns="http://www.w3.org/2000/svg" width="600.000000pt" height="335.000000pt" viewBox="0 0 600.000000 335.000000" preserveAspectRatio="xMidYMid meet" style="width: 322.43px; height: auto;"> <g transform="translate(0.000000,335.000000) scale(0.100000,-0.100000)" fill="#000000" stroke="none" class=""> <path d="M2037 3028 c-11 -8 -24 -44 -34 -93 -14 -68 -14 -96 -5 -186 6 -58 19 -136 28 -173 15 -59 18 -64 30 -49 7 10 14 13 14 6 0 -6 -4 -15 -10 -18 -5 -3 -10 -14 -10 -23 0 -13 2 -13 14 3 12 17 13 15 11 -25 -2 -25 -1 -39 2 -32 2 6 9 9 15 6 7 -4 6 -9 -1 -14 -7 -3 -9 -14 -5 -23 3 -9 10 -14 16 -11 15 9 38 -29 26 -43 -5 -7 -7 -17 -3 -24 6 -8 10 -7 17 2 6 10 7 7 3 -8 -8 -28 4 -51 16 -32 7 11 12 10 26 -5 10 -10 13 -16 6 -12 -20 11 -25 -12 -7 -39 13 -20 14 -31 5 -56 -6 -18 -11 -43 -11 -55 0 -13 -3 -24 -6 -24 -3 0 -32 16 -64 36 -56 35 -134 51 -136 29 0 -6 -6 -30 -13 -55 -14 -48 -9 -160 11 -253 8 -39 13 -47 18 -33 6 17 7 18 13 3 3 -9 2 -17 -3 -17 -6 0 -10 -10 -10 -22 0 -21 0 -21 15 -2 8 10 15 14 15 9 0 -6 -5 -16 -11 -22 -11 -11 30 -185 42 -177 4 2 -1 31 -11 64 -10 33 -14 62 -10 65 7 5 20 -32 25 -75 2 -8 6 -22 9 -31 4 -10 3 -20 -3 -24 -6 -3 -11 -21 -12 -38 0 -24 -4 -16 -14 28 -7 33 -27 107 -45 165 -17 58 -37 150 -45 205 l-14 100 2 -97 c1 -54 5 -98 10 -98 4 0 7 -6 7 -14 0 -8 16 -65 36 -128 29 -90 37 -137 43 -233 5 -81 13 -131 25 -153 19 -36 70 -72 101 -71 13 0 5 7 -23 21 -50 24 -69 49 -77 99 l-5 34 12 -38 c7 -21 18 -37 23 -36 12 4 7 33 -6 37 -11 4 -12 22 -1 22 15 0 40 -68 29 -79 -7 -7 1 -15 26 -26 20 -8 41 -15 47 -15 5 0 10 -9 10 -20 0 -11 -4 -20 -8 -20 -5 0 -5 -33 0 -74 9 -86 44 -190 60 -180 6 4 8 2 5 -4 -11 -16 3 -41 19 -35 8 3 14 0 14 -6 0 -7 10 -25 21 -40 13 -17 18 -34 14 -42 -5 -8 -4 -10 3 -5 15 9 61 -39 74 -77 6 -15 13 -26 16 -23 3 3 11 1 19 -5 15 -13 18 -53 3 -44 -5 3 -7 12 -4 19 3 8 1 17 -4 20 -5 3 -9 0 -8 -7 0 -6 -3 -12 -9 -12 -5 0 -9 6 -9 12 1 7 -2 10 -7 7 -5 -3 -6 1 -3 9 3 8 0 18 -5 22 -6 3 -8 11 -5 17 5 7 2 8 -5 3 -9 -5 -10 -10 -2 -18 6 -6 11 -16 11 -21 0 -6 -7 -2 -15 8 -8 10 -12 23 -9 28 3 5 0 7 -7 6 -6 -2 -14 3 -16 10 -3 8 1 10 13 5 12 -4 15 -3 10 6 -4 6 -15 10 -24 9 -21 -4 -112 140 -136 214 -9 30 -21 84 -25 119 l-8 64 -2 -50 c-2 -122 42 -219 199 -430 54 -74 124 -176 155 -227 96 -161 189 -223 325 -221 96 1 224 1 320 0 61 -1 85 3 130 24 83 38 121 78 203 207 40 64 115 173 166 242 51 68 110 161 133 206 36 74 40 90 43 170 l4 89 -9 -75 c-14 -130 -67 -235 -215 -425 -34 -44 -97 -136 -140 -204 -118 -185 -192 -230 -354 -216 -47 4 -108 6 -136 5 -165 -10 -229 -5 -278 19 -66 32 -123 92 -182 192 -57 96 -62 104 -47 95 6 -3 14 -1 18 5 5 8 3 9 -5 5 -8 -6 -11 -2 -9 10 2 10 -3 19 -9 19 -12 0 -14 3 -13 23 1 4 14 -8 30 -27 26 -31 32 -60 9 -46 -15 10 -11 -5 12 -42 17 -27 24 -31 35 -22 10 8 14 8 14 0 0 -6 -4 -11 -10 -11 -5 0 -10 -5 -10 -11 0 -5 5 -7 10 -4 17 11 37 -13 34 -41 -2 -21 0 -23 12 -13 15 12 15 11 18 -32 0 -12 17 -34 36 -50 35 -30 57 -38 44 -17 -4 7 -3 8 5 4 6 -4 9 -11 6 -16 -3 -5 20 -17 52 -26 57 -17 105 -16 240 4 29 5 50 5 47 1 -2 -4 21 -11 52 -15 162 -20 268 40 368 207 40 67 44 78 21 59 -9 -7 -18 -11 -21 -8 -5 6 61 98 78 109 6 3 9 10 8 15 -1 5 3 10 9 12 7 2 8 -3 4 -15 -6 -15 -4 -16 8 -6 29 24 79 102 69 108 -5 3 -10 1 -10 -4 0 -6 -5 -11 -11 -11 -8 0 -8 5 1 15 10 12 16 13 26 4 10 -8 14 -8 14 0 0 18 -4 26 -13 23 -5 -1 -6 2 -2 8 5 8 12 7 22 -2 14 -11 15 -10 9 9 -4 13 -2 31 4 40 9 15 10 13 5 -11 -5 -26 -4 -28 9 -17 10 8 14 23 11 38 -3 21 -2 23 11 13 9 -8 14 -9 14 -2 0 6 -5 14 -10 17 -15 9 -1 27 16 21 20 -8 39 31 23 50 -7 9 -8 14 -1 14 6 0 11 8 10 18 0 9 5 31 10 49 6 17 7 35 4 39 -4 4 -2 4 4 1 12 -7 7 -54 -7 -72 -4 -6 -4 -17 0 -24 16 -25 44 112 39 189 -4 54 -2 70 8 70 8 0 11 8 9 20 -2 12 0 18 6 15 5 -4 7 -11 4 -16 -11 -17 22 -9 49 12 39 31 49 60 57 174 l7 100 -2 -100 c-1 -125 -20 -170 -83 -200 -53 -25 -57 -41 -5 -20 75 31 102 87 102 217 0 58 9 106 36 200 44 150 64 255 63 316 -1 42 -3 39 -10 -23 -13 -103 -19 -103 -12 0 6 106 -7 168 -41 191 -22 14 -28 14 -62 -1 -21 -8 -53 -27 -72 -42 -39 -29 -46 -24 -56 38 -3 21 -11 41 -16 44 -11 7 -7 -21 14 -84 12 -39 27 -48 48 -29 64 60 116 78 143 48 15 -17 19 -39 21 -119 2 -92 -6 -164 -20 -178 -13 -13 -15 5 -5 40 26 94 12 257 -22 257 -24 0 -95 -45 -139 -89 -27 -27 -52 -46 -55 -43 -3 4 -4 0 -1 -8 3 -8 -6 -46 -19 -85 l-23 -70 5 75 c2 41 6 87 7 102 3 28 -10 39 -49 43 -51 5 -105 18 -105 26 0 5 -7 9 -15 9 -8 0 -15 3 -15 8 0 4 -13 16 -29 27 -20 12 -32 31 -36 54 -4 22 -9 30 -14 22 -12 -18 -23 14 -15 44 3 12 1 26 -5 29 -6 4 -18 21 -26 39 -16 31 -101 101 -127 103 -33 3 -38 5 -35 16 1 7 -2 12 -8 13 -31 3 -87 29 -100 48 -8 12 -15 18 -15 14 0 -4 -9 1 -20 10 -11 10 -20 23 -20 30 0 7 -4 13 -9 13 -5 0 -15 15 -22 33 -7 17 -20 38 -29 45 -12 11 -3 13 59 8 41 -3 79 -10 85 -16 5 -5 22 -10 38 -10 50 0 208 -71 292 -132 21 -15 45 -28 51 -28 21 0 113 89 159 154 58 82 100 167 120 246 10 36 22 82 27 103 18 68 65 61 86 -12 24 -84 35 -239 22 -315 -9 -55 -14 -67 -21 -51 -6 16 -7 14 -3 -7 6 -33 -4 -80 -15 -73 -5 3 -6 -3 -3 -13 5 -22 -107 -247 -124 -247 -6 0 -15 -4 -20 -9 -5 -5 -2 -6 6 -1 9 5 12 3 9 -6 -3 -8 -11 -13 -18 -11 -11 3 -11 0 0 -13 11 -14 17 -9 48 37 89 132 157 333 166 491 3 47 2 69 -2 52 -6 -23 -9 -10 -15 60 -3 50 -11 107 -17 128 -14 47 -47 66 -85 49 -28 -13 -38 -33 -67 -137 -28 -102 -94 -227 -156 -295 -29 -33 -51 -60 -47 -60 4 0 25 19 46 42 22 24 39 38 39 32 0 -16 -116 -124 -133 -124 -8 0 -39 16 -68 36 -81 54 -158 91 -256 121 -81 25 -101 27 -263 27 -162 0 -182 -2 -263 -27 -106 -33 -193 -75 -265 -129 -60 -45 -53 -47 -139 36 -57 54 -74 89 -20 40 l32 -29 -29 32 c-16 18 -33 30 -37 28 -20 -13 -116 176 -144 284 -23 90 -13 86 14 -7 12 -42 29 -88 37 -102 10 -16 13 -18 8 -5 -3 11 -17 54 -29 97 -41 135 -77 173 -128 136z m54 -24 c7 -9 14 -23 15 -32 1 -10 7 -39 12 -67 6 -27 9 -52 7 -54 -3 -3 -14 36 -29 99 -3 14 -12 34 -20 45 -13 18 -14 16 -5 -25 58 -264 162 -428 344 -544 50 -31 50 -32 52 -86 1 -38 -1 -49 -7 -35 l-9 20 -2 -20 c-1 -11 -3 -30 -4 -43 -3 -31 -28 -56 -76 -77 -37 -17 -42 -17 -74 -2 -19 9 -35 22 -35 28 0 8 6 7 18 -2 15 -13 16 -12 3 3 -7 10 -17 15 -22 13 -23 -15 -172 260 -173 320 -1 18 -5 31 -9 28 -4 -2 -5 8 -1 23 4 16 3 25 -2 21 -6 -3 -11 19 -12 50 -1 30 -7 64 -14 76 -10 20 -6 145 8 216 6 27 4 30 -11 25 -15 -6 -16 -4 -6 14 14 26 33 28 52 6z m-56 -91 c-4 -32 -12 -65 -17 -73 -6 -10 -7 7 -2 45 4 33 7 66 7 73 0 6 4 12 9 12 6 0 6 -25 3 -57z m1820 -40 c-18 -64 -100 -227 -124 -246 -8 -7 -2 8 13 33 43 70 83 156 102 221 10 32 20 57 22 55 2 -3 -4 -31 -13 -63z m-1828 -78 c-4 -8 0 -51 7 -97 8 -46 10 -87 6 -92 -9 -9 -15 22 -25 122 -6 58 -2 82 12 82 3 0 3 -7 0 -15z m153 -57 c0 -5 18 -36 40 -69 23 -32 39 -59 36 -59 -8 0 127 -131 145 -140 11 -7 31 1 68 25 29 19 54 35 56 35 2 0 11 -7 19 -16 9 -8 16 -11 16 -5 0 5 -7 14 -17 19 -14 9 -14 11 5 21 12 7 22 8 22 4 0 -4 6 1 14 12 8 12 20 16 34 13 12 -4 20 -1 19 5 -4 19 212 77 283 76 37 0 41 -2 22 -9 -12 -5 -25 -17 -29 -26 -5 -13 -7 -13 -14 -2 -6 9 -9 9 -9 1 0 -6 5 -15 10 -18 6 -4 8 -16 4 -27 -4 -15 -3 -18 6 -13 9 5 11 4 6 -4 -4 -6 -12 -8 -18 -5 -6 4 -23 -8 -38 -26 -18 -21 -32 -30 -40 -25 -8 5 -11 4 -7 -2 9 -14 -118 -77 -139 -69 -14 5 -15 4 -4 -9 11 -13 10 -14 -6 -9 -10 4 -16 4 -12 -1 9 -9 -40 -37 -52 -30 -5 3 -12 0 -16 -6 -5 -8 -3 -9 7 -4 8 5 -1 -6 -18 -24 -18 -18 -33 -37 -33 -42 0 -6 -4 -7 -10 -4 -6 4 -7 -1 -3 -11 5 -13 3 -15 -7 -9 -9 5 -11 4 -6 -3 4 -6 1 -22 -6 -34 -6 -13 -13 -31 -15 -42 -5 -26 -43 -77 -54 -71 -5 4 -6 -2 -2 -11 5 -14 3 -16 -11 -11 -9 4 -15 3 -12 -2 3 -5 -7 -14 -22 -20 -33 -14 -134 -31 -145 -24 -4 2 -6 -1 -5 -8 2 -7 -2 -13 -9 -14 -6 0 -15 -3 -19 -7 -3 -4 2 -6 14 -3 19 3 20 -1 19 -55 -1 -32 1 -56 6 -53 4 2 7 -13 6 -34 l-1 -38 -17 50 c-10 28 -16 56 -13 64 3 9 1 12 -6 7 -7 -4 -14 3 -18 19 -3 14 -11 25 -17 25 -7 0 -7 4 1 12 7 7 12 17 12 22 0 6 -4 5 -9 -3 -7 -11 -14 -9 -35 12 -14 14 -26 23 -26 20 0 -4 -13 6 -30 22 -16 16 -30 25 -30 21 0 -4 -7 0 -16 8 -28 28 -73 -21 -65 -71 1 -7 -3 -13 -9 -13 -13 0 -13 43 1 74 19 41 55 39 123 -6 45 -30 64 -38 76 -30 8 5 14 17 12 27 -2 11 1 14 9 9 9 -5 10 -1 6 15 -7 29 2 53 17 44 6 -3 6 -1 -1 8 -20 20 -15 31 7 19 11 -6 18 -15 15 -21 -4 -5 1 -9 10 -9 8 0 18 -7 21 -15 4 -11 10 -12 18 -6 7 6 17 6 26 1 19 -12 63 -13 56 -1 -3 5 1 12 10 15 8 3 13 2 10 -3 -3 -5 1 -11 9 -14 9 -4 12 -1 9 7 -3 7 11 29 30 49 19 19 32 38 29 41 -3 3 -1 11 4 18 6 7 10 39 9 70 -1 44 -6 61 -22 77 -12 11 -25 17 -29 13 -4 -4 -5 0 -3 8 1 8 -1 15 -7 15 -23 2 -55 17 -55 26 0 5 -4 8 -8 6 -13 -4 -124 112 -117 123 3 5 2 10 -3 10 -9 0 -50 61 -52 78 -1 4 -7 14 -15 22 -7 8 -16 26 -19 40 -7 24 -6 24 8 6 9 -11 16 -24 16 -28z m874 -104 c9 -3 13 -11 10 -16 -4 -6 -2 -13 4 -17 6 -3 13 -20 16 -36 3 -17 13 -34 22 -40 9 -5 32 -22 51 -37 19 -15 72 -45 118 -67 91 -43 158 -97 181 -145 14 -28 14 -29 -1 -12 -22 29 -19 14 13 -57 29 -63 80 -132 90 -122 3 3 -5 17 -19 33 -13 15 -6 10 16 -10 48 -44 81 -58 143 -58 41 -1 45 -2 30 -14 -20 -15 -25 -90 -8 -101 6 -3 10 -12 10 -18 0 -7 -4 -6 -10 3 -12 17 -4 -70 11 -132 15 -59 26 -53 32 20 7 90 33 163 75 213 42 49 133 112 145 100 5 -5 10 -53 12 -107 2 -66 0 -92 -6 -79 -7 15 -8 13 -4 -12 6 -46 -5 -99 -17 -81 -7 10 -8 8 -4 -5 3 -9 -10 -72 -29 -138 -28 -97 -35 -138 -35 -209 0 -103 -10 -136 -46 -152 -21 -10 -31 -9 -55 4 -33 20 -34 19 -15 -17 9 -17 16 -22 19 -13 4 9 6 9 6 -3 1 -8 -3 -19 -9 -25 -6 -6 -6 -21 -1 -42 5 -18 6 -34 1 -37 -8 -5 -26 75 -23 103 0 6 -3 12 -8 12 -9 0 -4 223 5 239 4 5 2 12 -4 16 -6 4 -7 11 -4 17 4 7 2 8 -5 4 -6 -4 -9 -12 -5 -17 7 -12 -11 -60 -43 -111 -13 -21 -20 -38 -17 -38 4 0 -23 -29 -59 -64 -105 -103 -183 -113 -254 -32 -57 64 -86 80 -135 73 -28 -4 -37 -3 -27 4 7 5 36 8 62 7 41 -1 55 -8 93 -41 24 -21 44 -34 44 -29 0 18 -69 71 -108 83 -31 9 -45 8 -75 -5 -21 -8 -36 -20 -35 -27 2 -6 -3 -14 -11 -17 -9 -3 -11 0 -7 9 4 8 -2 3 -13 -11 -31 -37 -26 -41 23 -19 46 20 80 16 103 -12 16 -22 24 -67 12 -74 -6 -4 -8 -13 -5 -20 5 -14 -18 -38 -47 -48 -11 -4 -20 -1 -23 8 -10 24 -29 18 -101 -32 -63 -45 -72 -48 -130 -48 -56 0 -67 4 -121 42 -70 50 -112 64 -112 38 0 -21 -36 -12 -65 17 l-20 20 27 -17 c32 -20 34 -20 54 0 14 13 19 13 47 -1 18 -9 47 -27 64 -41 47 -34 110 -54 150 -47 18 3 33 10 33 15 0 5 8 6 18 3 14 -5 15 -4 2 5 -11 8 -11 11 -2 12 6 1 17 3 22 4 6 1 15 3 21 4 5 0 8 5 4 10 -3 5 0 13 6 17 8 5 10 2 5 -7 -4 -8 0 -5 8 5 9 11 16 16 16 12 0 -5 6 -4 13 2 16 14 48 17 70 7 10 -4 28 -3 40 4 14 7 15 10 4 6 -10 -3 -28 1 -39 9 -26 19 -66 7 -137 -41 -41 -27 -70 -38 -106 -41 -45 -4 -56 0 -104 33 -82 57 -112 67 -145 49 -35 -17 -43 -13 -55 33 -20 72 38 111 110 74 44 -23 46 -21 22 15 -19 29 -82 64 -115 64 -29 0 -91 -37 -117 -71 -44 -57 -115 -61 -187 -12 -32 21 -36 22 -20 5 10 -12 27 -24 37 -27 11 -4 16 -11 13 -17 -4 -7 -2 -8 4 -4 7 4 12 3 12 -3 0 -5 25 -9 58 -8 37 2 56 6 55 14 -1 6 11 22 28 35 17 12 40 32 50 44 25 26 97 31 139 9 16 -8 30 -18 30 -21 0 -2 -13 2 -30 11 -61 31 -104 16 -174 -62 -68 -76 -152 -67 -245 26 -58 59 -137 192 -127 216 3 8 0 17 -6 21 -7 4 -8 3 -4 -4 4 -7 4 -12 -1 -12 -4 0 -4 -39 1 -87 9 -100 0 -137 -39 -155 -33 -15 -72 2 -86 39 -6 16 -10 64 -9 108 1 44 1 85 0 90 -1 6 -2 13 -1 17 0 3 -10 38 -24 78 -13 39 -21 78 -18 87 4 10 2 14 -4 10 -12 -8 -26 49 -16 66 4 6 1 7 -7 2 -10 -6 -12 -1 -7 24 4 18 3 30 -2 27 -8 -5 -10 18 -10 134 0 83 3 110 10 110 13 0 97 -61 126 -91 49 -52 84 -138 90 -224 3 -41 9 -72 13 -70 11 7 40 100 40 127 0 13 -4 28 -10 34 -15 15 -26 109 -12 100 7 -4 12 -15 12 -24 0 -14 2 -14 9 -3 11 17 3 41 -18 58 -13 10 -7 12 34 13 30 0 67 8 89 20 22 10 42 17 47 15 16 -10 80 85 109 160 19 50 -1 23 -39 -53 -37 -73 -71 -118 -71 -94 0 6 6 15 14 19 20 12 58 92 50 106 -4 7 -3 9 1 5 5 -5 21 14 36 40 38 67 82 103 194 157 53 26 113 64 133 84 20 19 33 29 28 21 -4 -8 2 -4 13 10 11 14 19 31 16 38 -3 8 0 10 7 6 8 -5 9 -2 5 9 -13 33 3 47 53 47 27 0 55 -3 64 -6z m-839 -383 c3 -5 1 -12 -4 -15 -5 -3 -11 1 -15 9 -6 16 9 21 19 6z m-226 -300 c4 -39 4 -71 -1 -71 -9 0 -9 -3 -14 84 -5 89 5 80 15 -13z m1750 9 c0 -10 -3 -8 -9 5 -12 27 -12 43 0 25 5 -8 9 -22 9 -30z m286 -157 c-33 -124 -64 -217 -64 -195 -1 38 -16 24 -17 -17 -1 -21 -6 -47 -12 -57 -9 -15 -11 -11 -7 24 6 64 15 102 26 102 5 0 9 -8 10 -17 0 -10 9 10 20 45 14 44 17 67 10 80 -9 15 -10 15 -10 -3 1 -24 -11 -88 -17 -94 -11 -11 -13 9 -3 40 6 19 11 43 13 54 5 37 17 65 27 65 7 0 8 -12 4 -30 -4 -16 -4 -30 -2 -30 3 0 11 26 18 58 6 31 14 52 16 45 2 -6 -3 -37 -12 -70z m-1945 -261 c0 -7 -4 -10 -10 -7 -5 3 -10 16 -10 28 0 18 2 19 10 7 5 -8 10 -21 10 -28z m-3 -69 c-3 -10 -5 -4 -5 12 0 17 2 24 5 18 2 -7 2 -21 0 -30z m-30 -35 c-3 -7 -5 -2 -5 12 0 14 2 19 5 13 2 -7 2 -19 0 -25z m235 -8 c4 -18 15 -33 56 -76 51 -54 37 -54 -18 1 -40 40 -50 46 -56 32 -9 -24 -23 -21 -17 3 3 11 10 20 17 20 6 0 4 5 -4 10 -10 6 -11 10 -2 10 6 0 12 5 12 11 0 5 -4 7 -10 4 -11 -7 -14 8 -3 19 7 7 19 -9 25 -34z m1646 -22 c-6 -16 -11 -28 -13 -28 -2 0 -2 12 0 28 2 15 4 36 5 47 l1 20 8 -20 c5 -11 4 -32 -1 -47z m-182 19 c-3 -12 0 -28 7 -36 10 -12 9 -14 -5 -8 -23 8 -23 -6 0 -74 21 -59 36 -152 22 -129 -5 9 -7 -1 -3 -26 9 -75 -54 -203 -182 -364 -19 -25 -58 -79 -86 -120 -57 -85 -73 -103 -41 -47 12 21 17 35 12 32 -15 -9 -40 -61 -33 -68 3 -4 -9 -28 -26 -55 -36 -56 -38 -67 -13 -58 16 6 16 5 0 -8 -10 -7 -18 -18 -18 -24 0 -6 -4 -13 -9 -16 -5 -4 -7 3 -4 15 5 18 0 16 -40 -14 -101 -77 -177 -80 -276 -12 l-51 35 -51 -35 c-76 -52 -115 -61 -177 -41 -71 24 -128 73 -178 153 -46 71 -55 94 -28 72 10 -8 8 0 -6 25 -13 20 -25 35 -28 32 -3 -3 1 -12 8 -21 7 -9 11 -18 8 -21 -3 -3 -14 10 -25 28 -11 18 -62 89 -114 158 -90 119 -169 254 -169 289 0 9 11 -7 24 -36 28 -59 109 -182 174 -263 93 -116 75 -84 -47 80 -89 120 -127 195 -146 291 -15 73 -15 79 5 135 11 32 20 67 20 79 1 20 1 20 12 0 17 -31 70 -85 84 -85 7 0 14 5 16 12 3 9 6 9 11 1 5 -7 -6 -16 -27 -23 -48 -16 -64 -62 -46 -137 9 -37 16 -50 22 -41 6 8 7 2 4 -17 -5 -20 -4 -25 3 -16 7 11 10 9 16 -9 4 -12 32 -65 62 -116 42 -72 52 -98 44 -108 -8 -9 -7 -13 2 -13 24 0 16 36 -27 129 -24 51 -44 100 -45 108 -8 109 -8 122 0 109 7 -12 9 -12 9 0 0 8 10 26 23 40 l22 26 -27 -24 c-16 -14 -28 -20 -28 -13 0 6 11 19 25 30 20 16 32 18 66 12 50 -9 94 2 126 32 l23 21 0 -22 c0 -65 61 -111 148 -111 34 0 54 -5 63 -17 12 -15 12 -16 -1 -8 -9 5 -12 4 -7 -1 5 -5 16 -9 25 -9 9 0 16 -6 14 -13 -1 -8 2 -11 7 -8 5 3 25 -1 45 -9 50 -21 100 -19 149 7 23 13 49 23 57 23 8 0 15 7 15 15 0 9 11 16 30 18 98 8 119 15 147 44 17 18 28 41 28 59 l0 28 37 -25 c31 -21 47 -25 102 -23 60 2 66 0 89 -26 22 -26 24 -35 20 -99 -4 -56 -13 -89 -46 -159 -23 -49 -46 -86 -51 -83 -19 12 -20 -12 -1 -29 11 -10 20 -14 20 -9 0 5 5 2 11 -6 9 -13 10 -13 6 1 -6 18 35 64 46 52 4 -3 7 0 7 7 0 11 3 11 12 2 9 -9 7 -17 -8 -34 -16 -19 -16 -21 -1 -9 10 8 23 24 29 35 6 12 7 18 3 14 -5 -4 -14 -3 -21 3 -14 11 -13 12 26 58 8 10 16 24 18 32 2 8 10 20 19 27 9 6 14 12 10 12 -3 0 0 20 7 44 8 25 11 48 8 51 -9 8 -42 -86 -35 -99 3 -6 3 -8 -2 -4 -4 4 -28 -23 -52 -60 -70 -104 -85 -124 -90 -118 -3 2 21 48 52 101 31 53 63 114 71 137 19 56 18 127 -4 162 l-18 30 48 46 c46 44 60 70 38 70 -5 0 -10 -4 -10 -10 0 -5 -10 -15 -22 -21 l-23 -11 23 21 c12 12 22 27 22 33 0 6 7 5 17 -3 15 -13 15 -12 6 6 -8 13 -8 26 -2 38 13 23 32 11 25 -16z m-1671 13 c3 -5 1 -10 -4 -10 -6 0 -11 5 -11 10 0 6 2 10 4 10 3 0 8 -4 11 -10z m620 -68 c-17 -14 -21 -28 -20 -79 0 -35 -3 -63 -7 -63 -4 0 -9 6 -10 13 0 6 -2 17 -2 22 -1 6 -8 20 -15 33 -11 21 -9 27 23 58 19 19 39 34 43 34 4 -1 -1 -8 -12 -18z m647 -21 c9 -11 14 -22 11 -25 -4 -3 -1 -6 5 -6 7 0 12 -4 12 -10 0 -5 -7 -10 -15 -10 -13 0 -20 -24 -17 -52 1 -3 -6 -12 -16 -20 -15 -11 -15 -11 -6 2 15 19 15 123 0 132 -7 5 -7 8 -1 8 6 0 18 -9 27 -19z m578 10 c0 -5 -12 -16 -27 -26 l-28 -17 25 25 c28 29 30 30 30 18z m-1689 -59 c-17 -33 -19 -54 -16 -142 3 -70 8 -106 17 -112 7 -4 9 -8 4 -8 -5 0 -3 -6 3 -14 8 -9 8 -16 2 -20 -9 -6 -31 48 -38 94 -5 41 -4 160 2 169 3 5 -7 18 -22 30 -27 19 -27 20 -4 14 16 -4 26 -1 33 11 5 9 16 16 24 16 12 0 11 -7 -5 -38z m1419 24 c0 -2 -8 -10 -17 -17 -16 -13 -17 -12 -4 4 13 16 21 21 21 13z m-1234 -35 c-3 -5 1 -12 10 -15 13 -5 11 -12 -15 -41 -23 -27 -31 -45 -31 -75 0 -50 -10 -77 -21 -58 -12 18 -11 96 1 103 6 3 10 17 10 30 0 13 10 33 22 45 23 21 33 26 24 11z m1188 -3 c-3 -5 -11 -5 -17 -2 -7 4 -8 3 -4 -2 5 -5 14 -9 20 -9 7 0 13 -10 15 -22 2 -13 8 -23 13 -23 6 0 7 -5 4 -10 -4 -6 -2 -17 5 -25 8 -9 8 -23 1 -47 l-9 -33 -3 30 c-1 17 -2 36 -2 42 1 7 -9 23 -21 36 -35 40 -47 65 -33 70 20 6 36 4 31 -5z m-1004 -12 c0 -2 -7 -7 -16 -10 -8 -3 -12 -2 -9 4 6 10 25 14 25 6z m-240 -18 c-1 -17 -29 -78 -32 -72 -7 13 11 74 22 74 6 0 10 -1 10 -2z m454 -54 c13 -5 14 -9 5 -20 -15 -18 -39 -18 -39 -1 0 12 9 27 16 27 1 0 10 -3 18 -6z m410 -15 c-3 -5 -9 -7 -14 -4 -5 3 -11 1 -15 -5 -4 -6 -11 -8 -16 -4 -6 3 -20 -2 -32 -13 -19 -16 -20 -16 -8 0 7 9 25 23 40 30 27 14 55 11 45 -4z m582 -23 c0 -13 -4 -22 -8 -19 -11 6 -10 43 1 43 5 0 8 -11 7 -24z m-1569 -48 c-3 -7 -5 -2 -5 12 0 14 2 19 5 13 2 -7 2 -19 0 -25z m786 -15 c-7 -2 -19 -2 -25 0 -7 3 -2 5 12 5 14 0 19 -2 13 -5z m571 -358 c-4 -8 -11 -15 -16 -15 -6 0 -5 6 2 15 7 8 14 15 16 15 2 0 1 -7 -2 -15z m-1146 -42 c13 10 14 9 4 -9 -9 -17 -9 -24 2 -33 7 -6 16 -8 20 -4 4 4 4 -1 0 -11 -7 -17 -8 -17 -26 5 -10 13 -23 33 -30 44 -8 16 -8 18 3 8 10 -10 16 -10 27 0z m86 -119 c9 -24 2 -26 -12 -4 -7 11 -8 20 -3 20 5 0 12 -7 15 -16z m914 -54 c-13 -22 -26 -40 -30 -40 -14 0 -8 17 12 35 11 10 20 24 20 32 0 7 5 13 10 13 6 0 0 -18 -12 -40z m-794 -116 c5 -14 4 -15 -9 -4 -17 14 -19 20 -6 20 5 0 12 -7 15 -16z m343 -7 c-5 8 -1 11 12 10 11 0 18 -4 15 -8 -2 -4 5 -10 16 -14 11 -3 19 -11 17 -17 -1 -6 4 -13 12 -16 8 -3 11 0 7 7 -5 7 -1 9 9 4 13 -4 14 -8 4 -13 -9 -6 -7 -9 7 -13 10 -2 6 -2 -11 0 -54 7 -164 9 -159 2 6 -11 -59 -17 -81 -7 -16 7 -14 7 8 3 17 -3 26 -2 23 4 -4 5 3 7 16 3 14 -3 19 -2 14 6 -5 8 0 12 13 12 12 0 21 4 21 9 0 5 9 13 20 16 12 4 17 11 13 18 -4 7 2 5 12 -3 10 -8 16 -10 12 -3z m348 -7 c-3 -5 -12 -10 -18 -10 -7 0 -6 4 3 10 19 12 23 12 15 0z m-40 -20 c-3 -5 -14 -10 -23 -9 -14 0 -13 2 3 9 27 11 27 11 20 0z m-98 -36 c-3 -3 -12 -4 -19 -1 -8 3 -5 6 6 6 11 1 17 -2 13 -5z" class=""></path> <path d="M2066 2820 c3 -41 12 -89 19 -108 8 -18 16 -51 19 -74 2 -22 10 -44 16 -48 7 -5 9 -17 5 -31 -5 -18 -4 -20 4 -9 8 12 11 11 16 -5 4 -11 11 -27 16 -35 5 -8 12 -23 15 -32 4 -10 11 -18 16 -18 5 0 6 -4 3 -10 -3 -5 1 -10 10 -10 9 0 14 -4 11 -9 -3 -4 3 -19 14 -31 11 -13 20 -27 20 -32 0 -5 4 -7 9 -3 6 3 16 -2 23 -11 7 -9 24 -28 38 -42 13 -15 23 -31 22 -36 -2 -5 4 -6 13 -2 9 3 13 2 10 -4 -3 -6 1 -10 11 -10 9 0 23 -8 31 -17 8 -10 12 -13 9 -6 -4 6 -1 13 6 15 6 2 -4 14 -23 26 -20 12 -61 48 -91 80 -119 124 -195 278 -234 467 l-14 70 6 -75z"></path> <path d="M2115 2490 c15 -51 70 -147 83 -142 10 3 9 8 -3 22 -11 12 -13 20 -6 25 6 3 11 12 11 18 0 8 -4 7 -9 -2 -8 -12 -12 -12 -25 -2 -9 8 -16 21 -16 30 0 9 -9 30 -21 46 -19 28 -20 28 -14 5z"></path> <path d="M2370 2380 c-10 -6 -11 -10 -2 -10 6 0 12 -5 12 -11 0 -6 -7 -9 -15 -5 -8 3 -15 2 -15 -3 0 -5 9 -11 20 -14 10 -3 19 -2 18 2 -2 21 3 31 15 25 8 -5 8 -2 -2 9 -7 9 -14 17 -15 17 0 0 -8 -5 -16 -10z"></path> <path d="M2211 2333 c-1 -17 16 -25 25 -12 4 7 3 9 -4 5 -5 -3 -13 0 -15 6 -4 9 -6 10 -6 1z"></path> <path d="M2373 2216 c0 -8 6 -12 14 -9 7 3 10 9 7 14 -8 14 -21 11 -21 -5z"></path> <path d="M2455 2450 c10 -11 20 -20 23 -20 3 0 -3 9 -13 20 -10 11 -20 20 -23 20 -3 0 3 -9 13 -20z"></path> <path d="M2212 2076 c7 -8 15 -12 17 -11 5 6 -10 25 -20 25 -5 0 -4 -6 3 -14z"></path> <path d="M3055 2540 c8 -9 15 -22 15 -28 0 -7 5 -12 11 -12 5 0 8 -4 4 -9 -3 -5 6 -19 21 -30 14 -11 23 -25 20 -30 -4 -5 -1 -13 5 -17 8 -4 9 -3 5 4 -11 17 4 14 54 -12 104 -54 132 -67 155 -76 14 -5 25 -14 25 -20 0 -5 5 -10 12 -10 27 0 -28 39 -119 86 -94 47 -211 143 -199 163 3 4 -1 8 -9 8 -13 0 -13 -3 0 -17z"></path> <path d="M2889 2487 c-32 -30 -89 -68 -135 -91 -43 -21 -91 -47 -106 -58 -30 -21 -93 -106 -85 -114 2 -3 19 16 36 42 17 26 31 44 31 39 0 -4 8 -1 18 8 16 15 207 117 218 117 3 0 3 -4 -1 -9 -3 -5 -1 -12 4 -15 5 -4 8 2 6 11 -3 22 34 65 49 56 6 -4 5 1 -3 10 -8 11 -9 17 -3 17 6 0 16 9 22 20 6 11 9 20 8 20 -2 -1 -28 -24 -59 -53z"></path> <path d="M2528 2166 c0 -6 -2 -16 -2 -21 -1 -6 -22 -29 -47 -53 -47 -42 -111 -72 -157 -72 -14 0 -23 -3 -19 -6 10 -10 89 -6 100 5 6 6 16 11 22 11 5 0 3 -5 -5 -10 -8 -5 -10 -10 -5 -10 6 1 19 7 29 15 14 11 16 15 5 15 -12 0 -12 2 1 9 8 6 18 7 24 4 5 -3 6 -1 2 5 -7 12 1 15 37 15 16 0 16 1 2 17 -15 16 -14 18 1 24 10 4 21 2 24 -4 5 -8 9 -6 13 5 4 9 3 14 -2 11 -17 -11 -22 26 -5 39 15 11 15 12 0 12 -9 0 -17 -5 -18 -11z"></path> <path d="M3939 2079 l-24 -20 28 17 c15 9 27 18 27 20 0 8 -8 4 -31 -17z"></path> <path d="M2040 2086 c0 -2 14 -14 30 -26 17 -12 30 -19 30 -16 0 2 -13 14 -30 26 -16 12 -30 19 -30 16z"></path> <path d="M2032 2053 c43 -85 49 -104 39 -141 -13 -43 -14 -112 -3 -112 4 0 8 15 9 33 4 49 13 81 22 71 13 -14 31 -74 22 -74 -16 0 -34 -80 -28 -129 7 -62 28 -105 75 -153 41 -43 24 -53 -19 -12 -27 26 -28 26 -26 5 1 -14 12 -24 37 -32 19 -7 38 -16 41 -21 3 -5 9 -1 12 11 3 12 -1 22 -9 25 -20 8 -64 105 -64 141 0 34 9 50 29 57 17 5 25 88 9 88 -5 0 -7 9 -3 19 5 18 -37 131 -50 131 -3 0 1 -13 10 -30 8 -16 15 -33 15 -37 -1 -4 -10 9 -21 30 -11 21 -17 42 -14 47 3 5 0 12 -6 16 -8 5 -10 2 -5 -7 4 -8 1 -5 -8 5 -8 10 -13 23 -10 28 3 5 0 7 -7 6 -7 -2 -13 2 -14 7 -1 16 -15 35 -26 35 -6 0 -9 -3 -7 -7z m138 -208 c0 -5 -5 -3 -10 5 -5 8 -10 20 -10 25 0 6 5 3 10 -5 5 -8 10 -19 10 -25z m-26 -120 c-13 -13 -24 -34 -24 -46 0 -30 -6 -22 -13 19 -5 23 -3 31 5 26 7 -5 8 -3 3 5 -4 7 1 34 11 59 l18 47 12 -43 c12 -40 11 -44 -12 -67z"></path> <path d="M3887 2038 c-10 -11 -17 -22 -14 -24 2 -2 12 5 22 16 23 26 16 33 -8 8z"></path> <path d="M3916 2020 c-20 -22 -36 -43 -36 -48 0 -4 9 4 20 18 28 35 25 18 -4 -25 -14 -20 -32 -56 -42 -80 -9 -25 -20 -42 -25 -39 -9 5 -11 -10 -13 -76 -1 -25 4 -38 19 -45 32 -16 32 -82 0 -144 -24 -48 -42 -70 -29 -36 4 8 2 15 -3 15 -5 0 -10 -21 -10 -47 -1 -27 1 -40 4 -30 2 9 9 17 14 17 6 0 7 -6 4 -12 -4 -7 1 -4 9 6 9 11 16 16 16 12 0 -5 8 -2 17 5 9 8 14 9 10 2 -4 -6 -3 -22 2 -35 8 -19 10 -16 10 24 1 25 4 55 7 65 4 11 0 9 -12 -7 -23 -32 -45 -49 -63 -50 -7 0 1 14 19 33 44 45 71 100 77 162 5 52 -10 125 -27 125 -5 0 -3 18 5 41 8 23 12 46 8 52 -3 5 -1 7 5 3 14 -8 34 -107 27 -132 -4 -13 -2 -13 6 3 9 17 9 39 1 90 -11 68 -10 77 36 166 11 22 -20 2 -52 -33z m34 16 c0 -2 -8 -10 -17 -17 -16 -13 -17 -12 -4 4 13 16 21 21 21 13z m-62 -309 c-3 -34 -5 -38 -13 -22 -5 11 -17 26 -27 33 -10 7 -15 18 -12 24 6 10 9 26 13 73 1 14 8 7 22 -23 13 -28 19 -58 17 -85z"></path> <path d="M2110 2031 c0 -6 4 -11 8 -11 4 0 21 -22 37 -50 16 -27 31 -48 33 -46 2 3 -8 25 -23 49 -28 49 -55 77 -55 58z"></path> <path d="M3608 2013 c6 -2 18 -2 25 0 6 3 1 5 -13 5 -14 0 -19 -2 -12 -5z"></path> <path d="M3663 2013 c9 -2 23 -2 30 0 6 3 -1 5 -18 5 -16 0 -22 -2 -12 -5z"></path> <path d="M3831 1969 c-13 -22 -20 -43 -17 -46 3 -4 6 -1 6 5 0 6 11 24 25 40 14 17 22 33 17 36 -5 3 -19 -13 -31 -35z"></path> <path d="M2329 1943 c0 -10 -2 -26 -4 -36 -5 -24 23 -77 54 -105 25 -22 25 -23 4 -17 -21 6 -23 3 -23 -39 0 -26 5 -46 11 -46 6 0 8 13 5 35 -4 25 -2 35 7 35 9 0 11 -12 9 -39 -3 -24 4 -57 17 -87 l21 -49 -30 35 c-31 36 -41 31 -15 -7 33 -47 238 -123 331 -123 42 0 116 30 129 51 6 9 3 11 -8 6 -11 -4 -17 -1 -17 8 0 12 -7 11 -37 -5 -45 -24 -82 -25 -171 -5 -106 24 -153 61 -167 130 -5 25 -2 22 19 -16 29 -53 50 -69 126 -94 79 -26 161 -25 198 2 26 19 29 20 40 4 6 -9 11 -11 10 -6 -1 6 1 17 5 25 11 30 14 71 5 76 -5 3 -4 12 2 19 7 8 9 19 5 25 -3 5 -1 10 4 10 6 0 11 -5 11 -11 0 -5 4 -8 9 -5 5 3 15 -1 22 -10 10 -13 10 -17 0 -23 -10 -7 -10 -13 -2 -29 6 -11 8 -28 4 -38 -5 -13 -3 -15 8 -10 8 4 6 1 -3 -6 -10 -9 -13 -19 -8 -27 6 -11 8 -11 12 0 3 8 5 -2 4 -21 0 -19 1 -60 3 -90 2 -48 3 -52 13 -30 10 26 6 170 -6 205 -5 13 -2 11 8 -5 18 -29 20 -23 6 15 -5 14 -14 23 -20 20 -14 -8 -1 26 19 49 12 14 12 17 2 11 -11 -6 -13 -4 -8 10 4 10 12 37 18 61 12 48 1 92 -29 116 -10 9 -13 9 -9 1 4 -6 3 -14 -3 -18 -5 -3 -10 -16 -10 -28 0 -28 -32 -77 -62 -93 -37 -21 -98 -16 -224 16 -65 17 -122 29 -128 27 -6 -2 37 -19 94 -38 82 -27 121 -34 181 -34 71 0 78 2 107 30 18 18 34 47 40 75 l10 45 1 -36 c2 -69 -71 -139 -145 -139 -73 0 -332 86 -327 109 2 6 -4 8 -12 5 -9 -4 -29 8 -50 29 -41 41 -48 73 -7 34 20 -19 31 -24 42 -17 12 8 11 10 -6 10 -11 0 -29 9 -39 20 -10 11 -22 17 -27 14 -6 -4 -7 2 -3 15 4 12 2 21 -4 21 -6 0 -11 -8 -12 -17z m104 -153 c4 0 5 5 1 11 -4 8 0 8 15 0 11 -7 21 -14 21 -17 0 -3 -5 -2 -10 1 -12 7 -33 -41 -32 -72 1 -12 -3 -25 -8 -28 -5 -3 -9 17 -9 49 1 30 -2 61 -6 68 -6 10 -5 11 6 1 7 -7 17 -13 22 -13z m490 -27 c-3 -10 -10 -24 -16 -30 -9 -12 -3 -17 16 -14 5 1 6 -3 2 -9 -4 -6 -15 -4 -30 7 -23 18 -25 40 -2 27 7 -4 9 -4 5 1 -8 9 9 35 23 35 5 0 6 -8 2 -17z m-405 -28 c40 -16 74 -23 101 -21 23 2 41 -1 41 -7 0 -5 7 -4 15 3 12 10 15 10 15 0 0 -7 7 -10 17 -6 16 6 16 6 0 -12 -9 -10 -17 -23 -17 -29 0 -6 -8 -17 -17 -24 -15 -12 -16 -12 -8 1 7 12 6 13 -6 3 -22 -18 -38 -2 -35 35 2 33 -7 42 -21 20 -19 -31 14 -88 50 -88 25 0 57 28 57 50 0 13 11 16 65 15 36 0 65 -1 65 -2 0 -1 -14 -22 -30 -47 -22 -32 -41 -48 -66 -55 -61 -17 -190 14 -237 57 -28 25 -72 132 -54 132 2 0 31 -11 65 -25z m-69 -112 l21 -38 -25 30 c-23 28 -31 45 -21 45 2 0 14 -17 25 -37z"></path> <path d="M2470 1721 c0 -6 7 -11 15 -11 8 0 15 -4 15 -9 0 -5 10 -7 23 -4 22 5 22 5 2 -11 -20 -17 -20 -17 2 -7 28 14 36 14 27 -1 -4 -7 -3 -8 4 -4 20 12 13 21 -25 35 -21 8 -44 16 -50 18 -7 3 -13 0 -13 -6z"></path> <path d="M2575 1631 c-3 -5 -2 -12 3 -15 5 -3 9 1 9 9 0 17 -3 19 -12 6z"></path> <path d="M3641 1929 c-8 -19 -33 -41 -67 -60 -30 -17 -54 -35 -54 -41 0 -5 -3 -7 -8 -4 -4 2 -58 -11 -120 -30 -122 -37 -187 -42 -231 -19 -31 16 -61 69 -64 115 -3 39 -12 38 -37 -2 -18 -30 -30 -79 -12 -51 4 6 7 -11 8 -38 0 -27 6 -55 12 -61 19 -19 14 -32 -5 -17 -17 13 -17 12 -2 -6 20 -25 33 -58 19 -50 -10 6 -21 -16 -34 -65 -3 -14 3 -8 14 15 12 23 18 30 14 15 -12 -50 -15 -146 -6 -185 l10 -40 1 46 c1 25 7 67 15 92 8 28 10 45 4 44 -6 -1 -13 4 -16 12 -3 8 0 11 6 7 7 -4 14 8 18 30 4 22 3 39 -4 43 -18 11 -2 61 19 61 6 0 7 -4 4 -10 -4 -6 1 -7 11 -3 11 4 15 2 11 -4 -4 -6 0 -14 9 -17 24 -9 31 -7 14 5 -12 9 -11 9 5 4 11 -4 34 -11 50 -15 26 -7 24 -8 -16 -8 -26 0 -51 -2 -57 -6 -15 -9 7 -97 32 -125 l21 -24 -24 13 c-19 10 -23 10 -19 -2 7 -19 51 -38 106 -45 65 -7 194 26 276 72 67 37 94 61 82 72 -4 4 -18 -6 -32 -22 -14 -17 -22 -24 -19 -17 4 7 1 21 -7 30 -11 15 -11 16 3 4 20 -15 27 -2 38 75 7 46 5 51 -10 50 -13 -1 -15 -4 -7 -14 12 -15 3 -79 -13 -89 -7 -4 -10 11 -8 42 3 43 1 50 -21 61 -14 7 -19 13 -12 13 7 0 10 5 7 10 -3 6 -2 10 4 10 5 0 11 -3 14 -7 2 -5 2 -2 1 5 -2 6 1 12 5 12 5 0 12 -6 14 -12 3 -8 6 -6 6 5 1 9 5 17 11 17 5 0 7 -7 3 -16 -5 -14 -3 -15 17 -4 12 7 27 25 33 41 6 16 15 29 19 29 9 0 11 52 2 74 -9 23 -18 20 -33 -15z m-2 -43 c-17 -36 -109 -86 -234 -127 -119 -39 -214 -45 -258 -16 -39 25 -67 76 -66 117 l1 35 8 -38 c4 -25 21 -52 44 -75 35 -36 39 -37 109 -37 55 0 96 8 172 33 55 19 105 41 112 49 7 9 17 12 25 7 7 -4 10 -4 6 1 -4 4 13 21 37 36 25 16 45 34 45 40 0 7 2 10 5 7 3 -3 0 -17 -6 -32z m-537 -148 c-7 -7 -14 -3 -22 11 -16 30 -2 48 17 21 11 -15 12 -25 5 -32z m407 38 c-2 -2 -15 -9 -29 -15 -24 -11 -24 -11 -6 3 16 13 49 24 35 12z m41 -36 c0 -28 -26 -79 -58 -113 -32 -33 -111 -58 -186 -58 -63 0 -98 18 -116 61 -7 17 -16 27 -21 24 -5 -3 -9 1 -9 8 0 9 18 13 65 13 61 1 65 0 59 -20 -4 -11 -3 -17 1 -13 3 3 15 -2 26 -13 32 -32 61 -25 92 23 16 26 16 27 -10 48 -15 11 -33 18 -40 16 -7 -3 -13 0 -13 5 0 7 9 9 23 4 50 -15 64 -14 117 9 69 30 70 30 70 6z m-233 -33 c-3 -8 3 -13 14 -13 11 0 19 4 19 8 0 16 19 8 30 -12 15 -28 -2 -55 -34 -55 -24 -1 -30 5 -35 30 -2 6 -10 19 -19 29 -9 11 -12 16 -5 13 6 -4 14 -3 18 3 9 14 18 12 12 -3z m233 -41 c0 -29 -52 -75 -107 -96 -82 -31 -169 -36 -213 -13 -33 17 -82 83 -62 83 5 0 13 -12 16 -26 5 -18 20 -31 51 -45 39 -17 52 -18 112 -9 88 14 149 44 176 86 25 38 27 40 27 20z"></path> <path d="M3440 1666 c0 -2 8 -10 18 -17 15 -13 16 -12 3 4 -13 16 -21 21 -21 13z"></path> <path d="M3225 1640 c-3 -5 -1 -10 4 -10 6 0 11 5 11 10 0 6 -2 10 -4 10 -3 0 -8 -4 -11 -10z"></path> <path d="M3401 1607 c-13 -21 -12 -21 5 -5 10 10 16 20 13 22 -3 3 -11 -5 -18 -17z"></path> <path d="M3290 1600 c8 -5 20 -10 25 -10 6 0 3 5 -5 10 -8 5 -19 10 -25 10 -5 0 -3 -5 5 -10z"></path> <path d="M3850 1919 c-12 -22 -20 -44 -18 -49 2 -4 13 14 25 41 26 59 21 65 -7 8z"></path> <path d="M2386 1937 c3 -10 9 -15 12 -12 3 3 0 11 -7 18 -10 9 -11 8 -5 -6z"></path> <path d="M3525 1901 c-3 -5 -2 -12 3 -15 5 -3 9 1 9 9 0 17 -3 19 -12 6z"></path> <path d="M2206 1845 c11 -48 25 -76 18 -35 -4 19 -10 42 -15 50 -6 10 -7 5 -3 -15z"></path> <path d="M2420 1866 c0 -2 7 -7 16 -10 8 -3 12 -2 9 4 -6 10 -25 14 -25 6z"></path> <path d="M3780 1856 c0 -8 4 -17 9 -20 5 -4 7 3 4 14 -6 23 -13 26 -13 6z"></path> <path d="M2307 1850 c-3 -8 -8 -33 -12 -54 -4 -23 -18 -51 -35 -67 -33 -33 -27 -49 7 -17 24 22 33 13 11 -12 -11 -12 -10 -12 5 -1 11 9 15 21 11 34 -3 11 -1 23 6 27 7 4 13 20 13 35 0 18 2 23 8 14 4 -7 5 -17 3 -21 -3 -4 2 -5 11 -2 11 4 12 10 6 18 -6 7 -14 23 -20 37 -7 18 -10 20 -14 9z"></path> <path d="M3675 1830 c-3 -5 -1 -10 4 -10 6 0 11 5 11 10 0 6 -2 10 -4 10 -3 0 -8 -4 -11 -10z"></path> <path d="M3031 1804 c0 -11 3 -14 6 -6 3 7 2 16 -1 19 -3 4 -6 -2 -5 -13z"></path> <path d="M2718 1793 c7 -3 16 -2 19 1 4 3 -2 6 -13 5 -11 0 -14 -3 -6 -6z"></path> <path d="M3624 1748 c1 -53 21 -48 22 5 1 23 -3 37 -11 37 -9 0 -12 -14 -11 -42z"></path> <path d="M3690 1781 c0 -5 7 -15 17 -22 15 -13 15 -12 4 9 -12 23 -21 28 -21 13z"></path> <path d="M2210 1731 c-7 -15 -7 -21 0 -21 12 0 25 28 17 36 -3 3 -10 -4 -17 -15z"></path> <path d="M3725 1720 c24 -26 42 -25 55 3 10 20 10 20 -3 4 -14 -17 -47 -14 -47 4 0 5 -5 9 -12 9 -6 0 -3 -9 7 -20z"></path> <path d="M2306 1703 c-4 -9 -3 -20 1 -24 4 -4 9 3 9 17 2 28 -1 31 -10 7z"></path> <path d="M3798 1713 c18 -7 15 -21 -4 -19 -9 0 -19 -6 -21 -14 -4 -13 -3 -13 5 -1 9 13 13 13 28 0 14 -11 16 -11 10 0 -7 10 -3 12 15 7 l24 -7 -24 20 c-13 12 -28 21 -35 20 -7 0 -7 -2 2 -6z"></path> <path d="M2160 1685 c0 -13 4 -14 20 -5 11 6 20 13 20 15 0 3 -9 5 -20 5 -11 0 -20 -7 -20 -15z"></path> <path d="M2340 1695 c-2 -5 -2 -14 -1 -18 1 -4 -4 -18 -11 -30 -11 -21 -10 -21 7 -7 17 14 18 13 12 -3 -4 -11 -1 -20 8 -23 8 -4 15 -15 15 -25 0 -11 11 -24 25 -31 13 -6 22 -15 18 -21 -3 -6 -1 -7 5 -3 7 4 12 2 12 -4 0 -6 4 -9 9 -5 6 3 -10 26 -35 50 -25 25 -44 54 -45 67 0 26 -17 69 -19 53z"></path> <path d="M3650 1676 c0 -8 4 -17 9 -20 5 -4 7 3 4 14 -6 23 -13 26 -13 6z"></path> <path d="M3640 1635 c0 -8 -20 -35 -43 -59 -49 -49 -122 -81 -232 -101 -46 -8 -60 -14 -40 -15 17 -1 33 -2 36 -2 4 1 22 3 40 5 19 2 47 9 62 16 16 6 34 11 41 11 8 0 19 7 26 15 7 8 18 15 24 14 24 -3 36 2 36 14 0 7 9 18 20 25 11 7 20 21 20 32 0 11 4 20 9 20 13 0 22 28 11 35 -6 4 -10 -1 -10 -10z"></path> <path d="M2859 1588 c-6 -14 -3 -55 4 -51 4 3 6 11 3 18 -3 8 0 15 7 18 8 2 8 5 -1 11 -7 4 -13 6 -13 4z"></path> <path d="M3696 1577 c3 -10 9 -15 12 -12 3 3 0 11 -7 18 -10 9 -11 8 -5 -6z"></path> <path d="M3727 1580 c9 -12 7 -23 -7 -50 -10 -19 -22 -35 -27 -35 -4 0 -7 -3 -5 -8 1 -4 -10 -20 -24 -37 -20 -22 -31 -27 -44 -20 -14 7 -16 4 -16 -23 1 -20 -4 -31 -12 -30 -6 2 -12 -4 -12 -12 0 -8 4 -15 8 -15 10 0 72 63 72 73 0 4 8 17 19 28 10 11 30 42 45 68 24 46 25 49 8 62 -15 12 -15 12 -5 -1z m-97 -169 c0 -6 -4 -12 -8 -15 -5 -3 -9 1 -9 9 0 8 4 15 9 15 4 0 8 -4 8 -9z"></path> <path d="M2296 1553 c-6 -14 -5 -15 5 -6 7 7 10 15 7 18 -3 3 -9 -2 -12 -12z"></path> <path d="M3134 1559 c-3 -6 -2 -15 3 -20 5 -5 9 -1 9 11 0 23 -2 24 -12 9z"></path> <path d="M2880 1539 c0 -14 6 -34 14 -45 13 -17 14 -15 6 19 -10 47 -20 59 -20 26z"></path> <path d="M3107 1547 c-4 -10 -7 -28 -6 -40 0 -21 1 -21 10 2 5 14 8 32 7 40 -3 13 -5 13 -11 -2z"></path> <path d="M2455 1520 c-3 -5 7 -12 22 -16 15 -4 33 -10 38 -14 15 -11 53 -19 120 -25 57 -5 56 -4 -35 20 -52 13 -103 29 -112 35 -22 12 -25 12 -33 0z"></path> <path d="M2306 1467 c3 -10 9 -15 12 -12 3 3 0 11 -7 18 -10 9 -11 8 -5 -6z"></path> <path d="M3220 1470 c0 -5 4 -10 9 -10 6 0 13 5 16 10 3 6 -1 10 -9 10 -9 0 -16 -4 -16 -10z"></path> <path d="M2216 1412 c-5 -18 -5 -36 -2 -39 7 -7 19 43 13 59 -2 7 -7 -2 -11 -20z"></path> <path d="M2341 1414 c13 -17 26 -30 28 -27 3 2 -8 16 -24 31 l-28 27 24 -31z"></path> <path d="M2560 1427 c0 -2 6 -10 14 -16 11 -9 16 -9 22 1 4 7 4 10 -1 6 -4 -4 -14 -3 -22 3 -7 6 -13 9 -13 6z"></path> <path d="M2116 1400 c3 -14 10 -29 15 -34 12 -13 69 -16 69 -4 0 5 -8 8 -17 7 -34 -3 -42 1 -58 29 -15 26 -16 26 -9 2z"></path> <path d="M3780 1410 c-1 -51 69 -81 90 -37 10 20 10 20 -3 5 -23 -29 -56 -22 -72 15 -8 17 -14 25 -15 17z"></path> <path d="M2869 1408 c-7 -24 -4 -40 9 -50 15 -11 15 -11 6 2 -6 8 -10 23 -9 33 3 13 -2 26 -6 15z"></path> <path d="M2922 1380 c0 -14 2 -19 5 -12 2 6 2 18 0 25 -3 6 -5 1 -5 -13z"></path> <path d="M3097 1383 c3 -7 6 -13 8 -13 2 0 5 6 8 13 3 8 -1 14 -8 14 -7 0 -11 -6 -8 -14z"></path> <path d="M3071 1374 c0 -11 3 -14 6 -6 3 7 2 16 -1 19 -3 4 -6 -2 -5 -13z"></path> <path d="M3187 1335 c-15 -11 -17 -17 -7 -32 7 -11 10 -12 7 -3 -4 17 46 47 51 31 2 -6 8 -9 12 -6 5 3 16 -5 24 -17 18 -25 22 -8 6 23 -13 23 -66 26 -93 4z"></path> <path d="M3136 1325 c4 -8 11 -15 16 -15 6 0 5 6 -2 15 -7 8 -14 15 -16 15 -2 0 -1 -7 2 -15z"></path> <path d="M3425 1331 c-9 -16 32 -32 74 -29 22 1 38 5 35 9 -3 5 -11 6 -19 2 -22 -8 -87 6 -80 18 4 5 4 9 1 9 -3 0 -7 -4 -11 -9z"></path> <path d="M2815 1320 c3 -5 11 -10 16 -10 6 0 7 5 4 10 -3 6 -11 10 -16 10 -6 0 -7 -4 -4 -10z"></path> <path d="M2860 1266 c0 -2 8 -10 18 -17 15 -13 16 -12 3 4 -13 16 -21 21 -21 13z"></path> <path d="M3114 1248 l-19 -23 23 19 c21 18 27 26 19 26 -2 0 -12 -10 -23 -22z"></path> <path d="M3046 1251 c-3 -5 2 -15 12 -22 15 -12 16 -12 5 2 -7 9 -10 19 -6 22 3 4 4 7 0 7 -3 0 -8 -4 -11 -9z"></path> <path d="M2919 1228 c28 -32 33 -34 24 -11 -5 12 -3 14 8 8 12 -8 12 -6 0 8 -15 18 -26 23 -16 7 9 -14 -8 -12 -25 3 -8 6 -4 0 9 -15z"></path> <path d="M3726 1433 c-6 -14 -5 -15 5 -6 7 7 10 15 7 18 -3 3 -9 -2 -12 -12z"></path> <path d="M2276 1325 c-9 -26 -7 -32 5 -12 6 10 9 21 6 23 -2 3 -7 -2 -11 -11z"></path> <path d="M3712 1322 c4 -12 3 -20 -2 -17 -4 2 -15 -4 -25 -15 -10 -11 -22 -17 -26 -14 -11 6 -12 -10 -1 -20 4 -4 13 -22 20 -39 10 -26 11 -27 8 -7 -2 14 -7 34 -11 44 -7 16 -5 18 8 13 9 -3 16 -2 14 2 -1 5 3 9 8 9 6 0 9 -5 7 -11 -2 -7 0 -8 5 -4 4 5 13 -13 20 -40 l12 -48 -3 50 c-2 27 -9 51 -15 53 -6 2 -8 14 -5 27 3 13 0 26 -7 30 -9 6 -11 2 -7 -13z"></path> <path d="M3371 1217 c-18 -35 -76 -69 -126 -75 -54 -6 -69 -19 -20 -17 26 0 32 -2 23 -12 -7 -8 -7 -13 0 -13 12 0 34 25 27 31 -2 3 5 6 17 6 l20 2 -21 -23 c-16 -17 -18 -23 -7 -23 8 0 13 4 10 8 -2 4 7 16 21 27 13 11 23 21 21 23 -2 2 2 10 10 17 8 7 14 9 14 5 0 -4 9 5 19 20 21 32 30 35 42 15 7 -10 9 -10 9 0 0 7 5 10 12 6 6 -4 8 -3 4 4 -3 6 -15 9 -26 7 -11 -2 -20 0 -20 6 0 17 -16 9 -29 -14z"></path> <path d="M3536 1221 c-3 -4 6 -13 19 -19 15 -7 25 -8 25 -2 0 13 -38 32 -44 21z"></path> <path d="M2456 1187 c-18 -18 -26 -36 -25 -59 0 -35 17 -85 19 -58 0 8 9 -5 20 -29 11 -24 36 -70 55 -102 20 -31 55 -104 80 -161 48 -110 95 -168 138 -168 13 0 66 9 118 20 119 25 148 25 290 -2 116 -21 117 -21 150 -2 27 16 44 42 84 130 28 60 77 157 108 216 53 97 58 112 55 160 l-3 53 -40 3 c-43 3 -39 5 -167 -95 -63 -49 -161 -85 -239 -87 -32 0 -54 -5 -51 -10 3 -5 -2 -7 -11 -3 -10 3 -17 2 -17 -3 0 -6 -9 -10 -20 -10 -11 0 -20 4 -20 10 0 5 -7 6 -17 3 -9 -4 -14 -2 -10 3 4 6 -6 9 -24 6 -17 -2 -29 0 -29 7 0 6 -11 8 -30 5 -19 -4 -30 -2 -30 5 0 7 -9 9 -26 5 -19 -5 -25 -4 -20 5 4 6 1 11 -9 11 -22 0 -86 34 -126 67 -18 15 -29 21 -24 13 8 -13 6 -13 -8 -1 -9 7 -14 18 -10 25 3 6 3 8 -1 4 -4 -3 -20 7 -34 23 -17 19 -41 32 -64 36 -30 4 -41 1 -62 -20z m49 6 c-27 -7 -55 -33 -56 -52 0 -11 -2 -12 -6 -3 -7 19 36 62 61 61 20 -1 20 -1 1 -6z m31 -33 c9 0 12 -5 9 -11 -4 -6 0 -9 11 -7 11 2 18 -2 17 -9 -3 -15 91 -99 138 -124 34 -17 252 -71 289 -71 46 0 257 54 299 78 28 14 78 55 112 90 33 35 68 64 78 64 36 0 41 -14 33 -99 -1 -11 -13 -33 -27 -49 -13 -16 -22 -32 -19 -35 3 -3 -4 -11 -16 -17 -12 -6 -41 -52 -66 -103 -25 -51 -49 -91 -54 -90 -5 2 -7 -4 -4 -12 3 -7 1 -22 -5 -32 -18 -31 -13 64 5 100 18 34 73 106 108 139 l21 20 -35 -14 c-19 -8 -35 -21 -35 -29 0 -8 -7 -14 -15 -14 -8 0 -14 -8 -14 -17 1 -9 -5 -19 -12 -22 -18 -7 -18 8 1 43 8 16 12 31 9 33 -3 3 2 8 11 12 11 4 14 2 9 -7 -5 -8 -2 -8 9 2 9 7 15 17 12 21 -3 4 2 10 10 14 8 3 15 15 15 26 0 11 4 20 9 20 11 0 22 53 12 63 -4 4 -13 -10 -21 -32 -15 -46 -55 -99 -66 -88 -4 4 6 21 22 38 20 22 23 28 9 20 -42 -23 -53 -37 -49 -61 4 -25 -34 -111 -51 -117 -14 -4 -45 54 -39 71 3 8 16 16 29 19 16 2 22 0 19 -7 -3 -6 2 -2 10 8 26 33 18 36 -32 13 -34 -15 -48 -27 -48 -41 2 -39 -98 -66 -242 -66 -98 0 -130 8 -118 29 4 6 2 11 -3 11 -6 0 -11 -6 -11 -13 0 -9 -10 -12 -31 -9 -23 3 -28 7 -18 14 10 7 9 8 -5 4 -20 -7 -46 9 -46 27 0 6 7 2 15 -9 13 -16 13 -13 -1 15 -17 35 -18 35 -45 -13 -8 -13 -8 -17 0 -12 7 5 9 1 5 -8 -3 -9 -10 -13 -15 -10 -5 3 -6 -3 -2 -12 4 -11 2 -15 -7 -12 -21 7 -54 78 -54 115 0 22 -4 32 -12 29 -7 -3 -18 2 -24 9 -7 8 -16 12 -21 9 -5 -3 -12 3 -15 13 -16 49 -27 73 -34 73 -7 0 -4 -16 18 -80 3 -8 4 -18 4 -22 -1 -5 2 -8 7 -8 14 0 6 -33 -9 -38 -8 -3 -10 0 -5 8 5 9 4 11 -4 6 -7 -5 4 -26 35 -63 58 -72 83 -122 87 -173 2 -22 2 -40 1 -40 -1 0 -11 -3 -21 -6 -14 -5 -15 -4 -4 4 12 9 13 15 3 37 -7 15 -9 31 -6 37 4 6 2 8 -3 5 -6 -4 -26 28 -46 74 -27 58 -45 84 -67 97 -19 11 -28 22 -24 32 3 8 2 11 -2 7 -12 -11 -42 57 -45 102 -3 36 0 44 21 55 14 6 27 8 28 4 2 -4 10 -8 18 -8z m-89 -62 c-3 -8 -6 -5 -6 6 -1 11 2 17 5 13 3 -3 4 -12 1 -19z m179 -79 c19 -22 19 -22 -3 -10 -13 6 -23 16 -23 21 0 15 5 12 26 -11z m14 -72 c0 -5 7 -15 15 -24 8 -8 13 -19 10 -23 -3 -5 4 -14 15 -20 12 -6 18 -16 13 -23 -4 -7 2 -5 12 3 11 9 16 10 11 3 -4 -7 -2 -13 3 -13 6 0 11 6 11 13 0 7 7 22 16 33 11 13 14 14 11 3 -3 -8 3 -20 12 -26 14 -9 18 -8 18 3 0 7 -5 10 -10 7 -6 -3 -7 -1 -4 5 4 5 16 8 28 5 13 -4 17 -8 9 -13 -8 -5 -4 -9 9 -13 12 -3 21 -2 21 2 0 4 7 8 15 8 8 0 12 -4 10 -8 -3 -4 9 -9 25 -11 45 -7 229 0 243 9 7 4 22 8 34 9 12 0 28 5 35 10 7 5 20 9 28 8 8 -1 21 -2 29 -3 10 -1 11 -4 2 -15 -9 -10 -8 -16 3 -25 12 -10 17 -9 27 7 7 12 19 18 27 14 11 -4 13 -1 7 8 -5 9 -4 11 4 6 12 -8 8 -19 -17 -48 -7 -9 -11 -23 -7 -30 3 -7 1 -6 -7 3 -14 16 -49 33 -45 21 4 -12 -31 -54 -41 -49 -5 4 -9 0 -9 -8 0 -8 5 -11 11 -8 6 4 5 -1 -3 -10 -14 -18 -26 -23 -16 -8 3 5 1 12 -5 16 -5 3 -10 0 -10 -7 0 -10 -2 -11 -8 0 -5 7 -16 10 -25 6 -14 -5 -16 -2 -11 12 5 15 2 14 -10 -4 l-17 -22 -20 22 c-14 17 -17 18 -13 6 4 -13 1 -18 -11 -18 -10 0 -13 5 -9 12 5 7 3 8 -7 3 -20 -13 -99 -14 -99 -1 0 6 -4 5 -9 -3 -5 -7 -13 -11 -19 -7 -6 3 -14 2 -17 -4 -5 -8 -12 -7 -23 2 -13 11 -14 11 -7 -1 6 -11 4 -13 -8 -8 -10 4 -28 2 -41 -3 -18 -6 -28 -5 -36 6 -7 7 -9 14 -6 14 4 0 -2 14 -14 31 -48 66 -31 2 20 -78 22 -35 29 -41 24 -21 -5 23 -2 27 23 31 77 15 248 12 358 -5 14 -2 26 10 46 46 24 44 28 47 37 29 6 -11 14 -42 18 -70 6 -46 4 -52 -17 -66 -22 -14 -33 -14 -114 4 -109 24 -215 26 -313 5 -84 -18 -128 -20 -137 -6 -3 5 -12 7 -19 4 -17 -6 -29 23 -14 32 6 4 8 3 4 -4 -3 -6 -2 -13 4 -17 6 -4 10 6 10 23 0 16 7 49 15 72 19 53 19 55 0 40 -19 -16 -27 -9 -29 24 0 16 -6 24 -13 22 -11 -5 -29 30 -25 47 1 4 -2 6 -7 5 -5 -2 -21 10 -35 25 -22 24 -25 32 -15 44 11 13 15 11 31 -9 9 -13 18 -27 18 -31z m-69 -34 c13 -16 12 -17 -3 -4 -17 13 -22 21 -14 21 2 0 10 -8 17 -17z m719 -47 c0 -11 -19 -15 -25 -6 -3 5 1 10 9 10 9 0 16 -2 16 -4z m50 -166 c-8 -5 -19 -10 -25 -10 -5 0 -3 5 5 10 8 5 20 10 25 10 6 0 3 -5 -5 -10z m-10 -24 c0 -3 -4 -8 -10 -11 -5 -3 -10 -1 -10 4 0 6 5 11 10 11 6 0 10 -2 10 -4z m-123 -32 c-3 -3 -12 -4 -19 -1 -8 3 -5 6 6 6 11 1 17 -2 13 -5z"></path> <path d="M3453 1015 c0 -8 4 -12 9 -9 5 3 6 10 3 15 -9 13 -12 11 -12 -6z"></path> <path d="M3163 953 c-13 -2 -23 -11 -23 -19 0 -18 -1 -18 46 6 38 19 30 23 -23 13z"></path> <path d="M3068 934 c-27 -8 -48 -16 -48 -19 0 -8 55 0 62 9 4 6 13 4 22 -3 14 -12 16 -10 16 8 0 11 -1 21 -2 20 -2 0 -24 -7 -50 -15z"></path> <path d="M2948 923 c7 -3 16 -2 19 1 4 3 -2 6 -13 5 -11 0 -14 -3 -6 -6z"></path> <path d="M2908 893 c6 -2 18 -2 25 0 6 3 1 5 -13 5 -14 0 -19 -2 -12 -5z"></path> <path d="M3345 809 c-4 -6 -5 -12 -2 -15 2 -3 7 2 10 11 7 17 1 20 -8 4z"></path> <path d="M3028 833 c7 -3 16 -2 19 1 4 3 -2 6 -13 5 -11 0 -14 -3 -6 -6z"></path> <path d="M3261 765 c-1 -5 -15 -25 -31 -44 -35 -39 -39 -57 -10 -39 11 7 20 16 20 20 0 5 5 8 11 8 5 0 7 -4 4 -10 -3 -5 -2 -10 3 -10 13 0 20 42 11 66 -4 10 -8 15 -8 9z"></path> <path d="M2751 730 c14 -31 19 -36 19 -24 0 6 -7 19 -16 30 -14 18 -14 18 -3 -6z"></path> <path d="M2710 718 c0 -13 5 -30 10 -38 7 -11 10 -7 10 17 0 17 -4 35 -10 38 -6 3 -10 -4 -10 -17z"></path> <path d="M2856 708 c3 -4 11 -5 19 -1 21 7 19 12 -4 10 -11 0 -18 -5 -15 -9z"></path> <path d="M2918 713 c7 -3 16 -2 19 1 4 3 -2 6 -13 5 -11 0 -14 -3 -6 -6z"></path> <path d="M3018 713 c18 -2 45 -2 60 0 15 2 0 4 -33 4 -33 0 -45 -2 -27 -4z"></path> <path d="M3115 710 c-3 -5 3 -10 15 -10 12 0 30 -5 41 -10 15 -8 19 -8 17 2 -5 24 -61 37 -73 18z"></path> <path d="M3483 1203 c9 -2 23 -2 30 0 6 3 -1 5 -18 5 -16 0 -22 -2 -12 -5z"></path> <path d="M2710 1136 c0 -2 8 -10 18 -17 15 -13 16 -12 3 4 -13 16 -21 21 -21 13z"></path> <path d="M2785 1089 c-4 -6 -14 -8 -24 -4 -12 5 -13 3 -4 -6 9 -9 17 -8 34 5 13 9 18 16 12 16 -7 0 -15 -5 -18 -11z"></path> <path d="M3514 967 c-34 -62 -67 -128 -74 -147 -7 -19 -26 -61 -42 -92 -34 -70 -29 -77 7 -10 14 26 23 36 19 22 -12 -51 -72 -146 -104 -167 -18 -13 -45 -23 -61 -23 -38 0 -82 18 -74 30 8 14 -28 13 -42 -1 -8 -8 -13 -7 -18 2 -5 8 -4 10 3 5 7 -4 12 -3 12 3 0 5 -31 15 -70 21 -54 9 -86 9 -142 0 -40 -7 -75 -15 -78 -19 -23 -28 -151 -57 -134 -29 5 8 2 9 -9 5 -10 -3 -17 -2 -17 4 0 6 -4 8 -9 5 -19 -12 -118 165 -104 187 3 6 1 7 -5 3 -17 -10 -15 -19 19 -102 56 -134 117 -164 221 -109 51 27 62 30 53 16 -3 -5 -1 -12 4 -16 6 -3 8 3 6 15 -3 17 0 19 21 14 13 -3 24 -2 24 2 0 5 37 8 81 6 85 -3 133 -19 157 -53 7 -11 19 -19 26 -19 7 0 25 -9 38 -20 14 -10 28 -17 31 -14 3 3 12 2 19 -2 7 -5 22 -9 33 -11 11 -1 14 1 8 3 -19 8 -16 25 3 22 10 -2 19 2 21 7 5 14 -80 6 -89 -9 -5 -7 -8 -6 -8 5 0 8 -16 22 -35 29 -20 8 -41 20 -47 27 -15 18 -4 16 42 -7 43 -22 100 -26 131 -10 11 6 30 28 42 48 29 46 70 159 63 171 -3 5 1 14 9 21 7 6 11 19 8 28 -6 15 -5 16 13 2 18 -14 18 -14 5 3 -13 16 -12 22 4 50 10 18 23 35 29 39 6 4 11 15 11 25 0 10 6 17 14 15 12 -3 12 0 2 12 -10 11 -9 16 2 23 14 8 31 42 29 56 -1 4 2 7 7 7 5 0 11 9 14 20 11 44 -11 14 -69 -93z m-224 -477 c0 -5 -2 -10 -4 -10 -3 0 -8 5 -11 10 -3 6 -1 10 4 10 6 0 11 -4 11 -10z"></path> <path d="M3720 1043 c0 -5 -18 -39 -40 -74 -23 -35 -31 -53 -20 -39 32 36 73 110 66 117 -3 4 -6 2 -6 -4z"></path> <path d="M3569 813 c-13 -16 -12 -17 4 -4 9 7 17 15 17 17 0 8 -8 3 -21 -13z"></path> <path d="M2510 786 c0 -3 9 -10 19 -16 15 -7 22 -7 27 2 4 7 4 10 -1 6 -4 -4 -16 -3 -26 3 -11 5 -19 7 -19 5z"></path> <path d="M3543 778 c-15 -20 -25 -38 -20 -38 3 0 12 11 21 25 17 26 16 35 -1 13z"></path> <path d="M3296 593 c-3 -4 -25 -10 -49 -14 l-42 -6 36 -2 c19 0 44 6 55 14 10 8 16 15 13 15 -3 0 -9 -3 -13 -7z"></path> <path d="M2580 575 c-1 -28 76 -127 115 -147 11 -6 0 9 -25 33 -25 24 -55 62 -67 84 -12 22 -22 36 -23 30z"></path> <path d="M2738 573 c6 -2 18 -2 25 0 6 3 1 5 -13 5 -14 0 -19 -2 -12 -5z"></path> <path d="M3395 541 c-95 -151 -221 -183 -338 -85 -39 33 -69 30 -127 -12 -62 -44 -105 -57 -150 -44 -18 5 -36 8 -38 6 -2 -3 14 -10 37 -17 32 -9 49 -9 85 1 25 7 44 16 41 20 -2 4 10 14 28 23 18 9 40 23 50 29 13 10 21 10 35 1 9 -7 32 -20 49 -29 18 -9 31 -20 28 -24 -5 -9 63 -30 96 -30 66 0 170 79 222 169 26 45 12 38 -18 -8z"></path> <path d="M2835 551 c-10 -17 -75 -42 -111 -43 -23 -1 -29 -4 -22 -12 13 -14 58 -17 58 -5 0 6 8 5 19 -1 17 -9 19 -7 16 10 -3 14 2 20 14 20 19 0 48 27 38 36 -3 3 -8 0 -12 -5z"></path> <path d="M2895 450 c-3 -6 1 -7 9 -4 18 7 21 14 7 14 -6 0 -13 -4 -16 -10z"></path> <path d="M2656 1335 c-9 -26 -7 -32 5 -12 6 10 9 21 6 23 -2 3 -7 -2 -11 -11z"></path> <path d="M2790 1190 c0 -5 5 -10 10 -10 6 0 10 5 10 10 0 6 -4 10 -10 10 -5 0 -10 -4 -10 -10z"></path> <path d="M3722 2972 c-17 -16 -33 -40 -36 -53 -9 -43 -17 -94 -17 -111 0 -10 -4 -18 -8 -18 -5 0 -11 -12 -14 -28 -3 -15 -15 -38 -27 -52 -12 -14 -29 -35 -37 -46 -15 -23 -68 -39 -117 -35 -18 2 -26 -1 -21 -8 3 -6 11 -8 17 -5 6 4 13 2 17 -3 3 -6 32 -7 69 -3 34 3 62 2 62 -2 0 -15 19 -8 42 17 45 48 78 98 78 119 0 8 5 16 11 18 7 2 9 13 4 27 -7 24 -36 25 -42 1 -4 -13 -3 -13 6 0 5 8 13 12 16 8 8 -8 -5 -58 -16 -58 -5 0 -9 -7 -9 -16 0 -9 -5 -12 -12 -8 -9 5 -8 2 1 -9 12 -15 12 -17 -3 -11 -10 4 -16 1 -16 -7 0 -8 -10 -27 -23 -42 -18 -23 -26 -27 -45 -20 l-24 9 26 25 c14 13 26 30 26 37 0 6 3 12 8 12 9 0 32 49 32 68 0 7 4 11 9 8 4 -3 7 8 5 25 -2 17 0 28 6 24 5 -3 8 5 7 17 -3 44 14 98 34 109 25 13 26 12 29 -26 4 -39 -9 -68 -26 -61 -11 4 -11 2 -1 -15 10 -16 9 -21 -3 -29 -12 -8 -11 -10 7 -10 28 0 38 17 22 36 -10 12 -9 16 9 21 25 6 26 8 12 33 -6 11 -6 21 -1 24 11 7 -1 58 -16 63 -5 2 -24 -9 -41 -25z"></path> <path d="M3916 2988 c3 -4 2 -14 -3 -20 -4 -7 -8 -17 -8 -23 -2 -39 -19 -95 -28 -95 -5 0 -8 -3 -4 -6 3 -4 0 -19 -9 -35 -8 -16 -14 -32 -14 -36 0 -13 -12 -48 -19 -53 -10 -8 -31 -49 -31 -60 0 -17 -42 -70 -51 -64 -5 3 -7 -1 -4 -8 5 -17 -113 -117 -165 -141 -22 -10 -40 -22 -40 -28 0 -6 -4 -8 -9 -5 -6 4 -8 -24 -6 -66 4 -101 4 -99 38 -135 16 -17 27 -38 24 -46 -6 -15 19 -17 42 -2 11 6 13 4 8 -8 -3 -10 -2 -17 2 -17 5 0 18 -3 28 -7 15 -6 16 -4 6 8 -10 12 -8 15 7 15 10 0 16 -5 13 -11 -4 -5 4 -1 17 10 14 12 20 14 15 5 -7 -12 -6 -13 7 -3 8 7 18 10 22 6 4 -4 4 0 0 10 -3 9 -11 14 -18 11 -6 -3 6 10 27 29 20 19 37 38 37 42 0 4 8 14 18 21 9 7 18 16 18 21 5 26 18 53 26 53 5 0 7 4 3 9 -3 5 2 16 10 25 8 8 18 29 21 45 4 17 9 29 13 27 3 -2 6 6 7 17 1 12 12 58 24 102 19 65 24 109 26 232 2 111 -1 154 -10 162 -9 8 -11 -9 -8 -77 2 -48 -1 -127 -8 -177 -7 -49 -13 -102 -14 -117 0 -14 -3 -25 -6 -23 -4 2 -6 -11 -6 -29 0 -43 -80 -210 -95 -200 -8 4 -9 3 -5 -4 9 -15 -18 -55 -29 -44 -5 4 -5 2 -2 -4 3 -6 -3 -20 -13 -32 -11 -12 -20 -23 -20 -26 0 -3 -11 -17 -25 -32 -21 -23 -30 -26 -66 -21 -36 5 -90 39 -87 56 1 3 -3 17 -9 31 -15 36 -33 95 -33 108 0 6 32 31 70 56 91 59 155 119 196 182 38 59 98 208 120 297 8 34 17 67 19 73 2 6 -3 11 -11 11 -7 0 -11 -4 -8 -9z"></path> <path d="M1976 2740 c11 -161 77 -356 166 -488 56 -84 51 -48 -7 44 -29 46 -67 122 -84 169 -28 77 -40 128 -71 305 -8 49 -9 46 -4 -30z"></path> <path d="M3914 2763 c-26 -144 -162 -372 -279 -467 -25 -21 -45 -41 -45 -45 0 -4 12 -13 26 -19 14 -7 23 -8 20 -4 -3 5 6 19 19 32 13 13 22 26 20 30 -3 5 3 16 13 27 9 10 13 13 8 6 -5 -8 -6 -16 -4 -19 3 -3 12 8 19 25 7 16 17 27 21 25 4 -3 18 15 30 40 15 31 25 42 30 33 5 -8 8 -7 8 5 0 9 11 34 25 54 14 20 25 45 25 55 0 11 5 19 10 19 6 0 10 7 10 16 0 8 4 13 9 10 13 -9 33 44 22 58 -7 8 -7 16 -1 22 5 5 11 25 15 44 3 19 8 47 11 63 3 15 3 27 0 27 -3 0 -8 -17 -12 -37z m-21 -148 c-7 -21 -12 -19 -10 4 0 11 5 18 9 15 4 -3 5 -11 1 -19z m-233 -340 c-7 -8 -17 -15 -23 -15 -6 0 -2 7 9 15 25 19 30 19 14 0z"></path> <path d="M2251 2673 c7 -12 15 -20 18 -17 3 2 -3 12 -13 22 -17 16 -18 16 -5 -5z"></path> <path d="M3981 2634 c0 -11 3 -14 6 -6 3 7 2 16 -1 19 -3 4 -6 -2 -5 -13z"></path> <path d="M3390 2616 c28 -17 50 -21 35 -7 -6 5 -21 12 -35 15 l-25 7 25 -15z"></path> <path d="M2357 2594 c-9 -9 26 -44 45 -44 20 0 34 18 22 30 -12 11 -60 21 -67 14z"></path> <path d="M3455 2585 c52 -44 103 -53 53 -9 -12 10 -18 13 -14 7 10 -17 1 -16 -32 3 -25 15 -26 15 -7 -1z"></path> <path d="M2365 2540 c10 -11 20 -20 23 -20 3 0 -3 9 -13 20 -10 11 -20 20 -23 20 -3 0 3 -9 13 -20z"></path> <path d="M3855 2439 c-4 -6 -5 -12 -2 -15 2 -3 7 2 10 11 7 17 1 20 -8 4z"></path> <path d="M3984 2384 c-19 -19 -34 -41 -34 -49 0 -7 -5 -15 -12 -17 -9 -3 -9 -6 0 -12 7 -4 12 -2 12 4 0 6 5 8 10 5 6 -3 10 2 10 13 0 20 42 72 59 72 17 0 61 -23 61 -32 0 -4 6 -8 13 -8 19 0 86 -67 98 -97 5 -15 8 -32 5 -40 -3 -7 -1 -13 4 -13 6 0 10 16 10 36 0 27 -8 44 -32 68 -47 45 -135 106 -154 106 -9 0 -32 -16 -50 -36z"></path>  <path d="M2100 2384 c0 -17 17 -36 24 -26 3 5 -1 15 -9 22 -8 7 -15 9 -15 4z"></path> <path d="M1994 2309 c-10 -17 6 -60 34 -88 35 -35 82 -66 82 -54 0 5 -11 16 -25 23 -25 13 -34 30 -16 30 21 0 17 28 -8 56 -30 34 -57 48 -67 33z m57 -51 c7 -13 7 -24 1 -30 -7 -7 -12 -3 -17 11 -3 12 -11 21 -16 21 -5 0 -9 7 -9 15 0 20 28 8 41 -17z"></path> <path d="M3906 2267 c3 -10 9 -15 12 -12 3 3 0 11 -7 18 -10 9 -11 8 -5 -6z"></path> <path d="M3660 2246 c0 -2 8 -10 18 -17 15 -13 16 -12 3 4 -13 16 -21 21 -21 13z"></path> <path d="M3894 2243 c4 -8 1 -13 -8 -13 -9 0 -16 -4 -16 -9 0 -8 128 -7 136 2 2 2 -18 4 -43 6 -26 1 -54 8 -62 14 -12 9 -13 9 -7 0z"></path> <path d="M4026 2215 c-11 -8 -15 -15 -9 -15 6 0 16 7 23 15 16 19 11 19 -14 0z"></path> <path d="M4056 2215 c-3 -9 -2 -13 4 -10 14 9 12 -8 -2 -25 -11 -12 -10 -12 4 -2 12 10 18 10 23 1 4 -6 2 -14 -4 -18 -7 -5 -5 -14 9 -29 24 -25 25 -26 51 -12 25 14 24 44 -3 69 -15 15 -25 18 -34 10 -9 -7 -16 -4 -27 11 -12 18 -15 19 -21 5z m87 -67 c7 -19 -8 -23 -36 -12 -12 4 -13 11 -5 35 9 28 11 29 23 12 6 -10 15 -26 18 -35z"></path> <path d="M3565 2180 c-3 -5 -1 -10 4 -10 6 0 11 5 11 10 0 6 -2 10 -4 10 -3 0 -8 -4 -11 -10z"></path> <path d="M4025 2170 c10 -11 20 -20 23 -20 3 0 -3 9 -13 20 -10 11 -20 20 -23 20 -3 0 3 -9 13 -20z"></path> <path d="M4179 2168 c-4 -55 -5 -65 -13 -101 -7 -30 -15 -41 -37 -49 -32 -11 -39 -28 -11 -28 35 0 58 33 67 97 3 21 8 50 11 65 3 14 0 29 -5 33 -7 3 -12 -3 -12 -17z"></path> <path d="M4627 2130 c-3 -11 -1 -20 4 -20 5 0 9 9 9 20 0 11 -2 20 -4 20 -2 0 -6 -9 -9 -20z"></path> <path d="M4124 2094 c-18 -14 -18 -14 6 -3 31 14 36 19 24 19 -6 0 -19 -7 -30 -16z"></path> <path d="M5080 2092 c0 -4 5 -13 11 -19 16 -16 20 -65 7 -80 -7 -9 -7 -13 0 -13 24 0 30 74 8 103 -14 18 -26 22 -26 9z"></path> <path d="M4610 2068 c0 -19 2 -20 10 -8 13 19 13 30 0 30 -5 0 -10 -10 -10 -22z"></path> <path d="M3766 2058 c3 -5 10 -6 15 -3 13 9 11 12 -6 12 -8 0 -12 -4 -9 -9z"></path> <path d="M4586 2018 c-4 -13 -9 -36 -12 -53 -4 -16 -10 -37 -14 -46 -11 -20 -16 -106 -7 -115 4 -4 7 10 7 32 1 40 31 168 43 180 10 10 9 24 -2 24 -5 0 -12 -10 -15 -22z"></path> <path d="M5093 1925 c0 -22 2 -30 4 -17 2 12 2 30 0 40 -3 9 -5 -1 -4 -23z"></path> <path d="M5089 1844 c-1 -16 -3 -38 -4 -49 -12 -82 -14 -125 -4 -125 6 0 9 -18 8 -45 -2 -24 0 -47 4 -51 12 -12 13 39 2 106 -8 53 -8 53 -5 60 11 29 16 118 7 127 -4 3 -8 -7 -8 -23z"></path> <path d="M4090 1847 c0 -12 9 -26 50 -74 25 -30 -4 -74 -62 -96 -22 -8 -22 -5 -5 36 15 34 12 57 -5 57 -6 0 -9 -3 -5 -6 3 -3 -1 -24 -9 -46 -36 -103 0 -104 98 -3 16 16 25 31 19 33 -6 2 -11 9 -11 16 0 7 -9 22 -20 34 -12 12 -20 30 -18 39 2 10 -4 19 -14 21 -11 2 -18 -3 -18 -11z"></path> <path d="M4076 1805 c-3 -8 -1 -15 4 -15 6 0 10 7 10 15 0 8 -2 15 -4 15 -2 0 -6 -7 -10 -15z"></path> <path d="M4514 1754 c-7 -38 8 -79 33 -88 10 -4 9 4 -6 27 -11 19 -18 37 -14 41 9 9 10 56 1 56 -4 0 -10 -16 -14 -36z"></path> <path d="M4556 1566 c-12 -48 -17 -101 -8 -86 5 8 13 36 16 63 8 49 2 64 -8 23z"></path> <path d="M5065 1495 c-4 -30 -11 -55 -16 -55 -4 0 -11 -20 -15 -45 -3 -25 -10 -45 -14 -45 -5 0 -11 -8 -15 -19 -3 -10 -25 -38 -48 -61 -49 -50 -87 -100 -87 -113 0 -6 9 -2 20 8 11 10 20 22 20 26 0 4 21 30 48 56 45 47 60 71 96 156 16 39 33 147 23 147 -3 0 -9 -25 -12 -55z" class=""></path>  <path d="M3940 1268 c-14 -13 -26 -22 -27 -20 -2 1 -8 2 -15 2 -6 0 -4 -6 6 -13 10 -8 20 -25 21 -39 2 -14 6 -36 10 -47 7 -24 -9 -51 -30 -51 -8 0 -11 8 -9 18 3 9 -2 26 -11 37 -15 19 -15 19 -11 -10 2 -16 5 -35 5 -41 2 -25 37 -20 64 8 24 24 26 29 12 34 -13 6 -14 8 -3 15 10 7 11 9 0 9 -7 0 -11 4 -8 9 4 5 2 20 -3 33 -10 27 10 65 28 53 7 -3 8 0 5 9 -8 20 -6 20 -34 -6z"></path> <path d="M1934 1264 c-15 -6 -5 -56 10 -51 6 2 10 13 8 25 -3 20 -1 20 26 11 17 -6 38 -19 47 -29 17 -19 48 -120 39 -129 -9 -10 -39 15 -55 47 -23 45 -39 62 -57 62 -13 0 -13 -2 2 -13 10 -7 30 -35 44 -62 20 -37 33 -51 52 -53 41 -4 53 10 36 44 -8 16 -17 47 -21 69 -4 31 -14 45 -40 63 -33 21 -65 26 -91 16z"></path> <path d="M3868 1216 c-4 -17 -1 -23 9 -19 15 6 18 29 4 37 -5 3 -11 -5 -13 -18z"></path> <path d="M4845 1141 c-3 -5 -1 -12 5 -16 5 -3 10 1 10 9 0 18 -6 21 -15 7z"></path>  <path d="M3870 1069 c0 -5 5 -7 10 -4 6 3 10 8 10 11 0 2 -4 4 -10 4 -5 0 -10 -5 -10 -11z"></path> <path d="M4884 1035 c11 -8 24 -15 29 -15 5 0 43 -33 84 -74 40 -41 83 -78 93 -81 11 -4 18 -10 16 -14 -3 -4 8 -22 24 -40 17 -18 30 -36 30 -42 0 -5 5 -9 10 -9 18 0 11 22 -14 41 -13 10 -26 29 -30 41 -3 13 -22 34 -43 48 -21 14 -62 50 -93 81 -55 57 -88 79 -112 79 -8 -1 -6 -6 6 -15z" class=""></path> <path d="M4420 982 c0 -6 -7 -18 -16 -26 -8 -9 -11 -16 -5 -16 13 0 35 39 27 48 -3 3 -6 0 -6 -6z"></path> <path d="M3829 958 c-7 -25 -7 -48 0 -43 6 3 9 14 8 25 -1 17 -5 26 -8 18z"></path> <path d="M2260 934 c0 -10 49 -73 50 -63 0 3 -11 20 -25 39 -14 19 -25 30 -25 24z"></path> <path d="M3725 930 c3 -5 8 -10 11 -10 2 0 4 5 4 10 0 6 -5 10 -11 10 -5 0 -7 -4 -4 -10z"></path> <path d="M4380 915 c-7 -9 -11 -17 -9 -20 3 -2 10 5 17 15 14 24 10 26 -8 5z"></path> <path d="M4331 876 c-10 -12 -8 -13 8 -9 12 3 21 9 21 14 0 14 -16 11 -29 -5z"></path> <path d="M4298 830 c-10 -9 -15 -20 -11 -23 3 -4 13 2 21 14 18 26 12 32 -10 9z"></path> <path d="M3746 795 c-9 -9 -16 -22 -16 -28 0 -7 -13 -27 -30 -45 -16 -18 -30 -30 -30 -26 0 3 -18 -10 -39 -31 -24 -24 -37 -44 -33 -53 3 -9 1 -13 -5 -9 -6 4 -25 -17 -44 -46 -54 -85 -59 -97 -46 -98 50 -5 97 21 97 54 0 21 -1 21 -23 -7 -14 -17 -30 -27 -41 -25 -16 4 -16 5 1 24 10 11 24 32 30 47 13 30 31 51 82 100 40 39 62 62 96 103 l24 30 1 -42 c0 -34 -5 -46 -25 -60 -47 -34 -148 -134 -141 -140 4 -4 20 8 36 26 17 18 30 31 30 29 0 -2 27 21 60 52 54 51 60 60 60 97 0 49 -20 71 -44 48z"></path> <path d="M4260 789 c0 -5 5 -7 10 -4 6 3 10 8 10 11 0 2 -4 4 -10 4 -5 0 -10 -5 -10 -11z"></path> <path d="M4236 774 c-21 -55 1 -78 128 -130 33 -14 70 -33 80 -42 16 -14 18 -14 14 -2 -2 8 -49 37 -104 64 -54 27 -101 51 -102 52 -2 2 -4 19 -4 38 0 40 -3 44 -12 20z" class=""></path> <path d="M5191 733 c-1 -32 -8 -49 -32 -75 -36 -39 -64 -88 -50 -88 12 0 35 40 24 40 -4 1 3 7 17 15 14 8 21 14 16 15 -6 0 -2 6 8 13 21 15 36 75 25 102 -6 15 -8 9 -8 -22z" class=""></path> <path d="M3525 660 c-16 -17 -25 -30 -20 -30 5 0 0 -6 -11 -14 -16 -13 -17 -14 -2 -12 16 2 73 74 65 82 -2 2 -16 -10 -32 -26z"></path> <path d="M5089 555 c-1 -3 -2 -9 -3 -14 0 -5 -4 -13 -8 -17 -11 -11 -10 -24 2 -24 6 0 10 6 10 14 0 8 7 22 16 30 14 15 14 16 0 16 -9 0 -17 -2 -17 -5z" class=""></path> <path d="M4440 536 c0 -9 -4 -16 -10 -16 -15 0 -12 -73 4 -95 7 -11 23 -38 35 -60 11 -22 21 -32 21 -23 0 21 -31 88 -41 88 -16 0 -19 52 -4 80 9 18 11 31 5 35 -6 3 -10 -1 -10 -9z"></path> <path d="M2550 512 c0 -5 6 -16 13 -26 12 -16 13 -16 13 3 0 11 -6 23 -13 25 -7 3 -13 2 -13 -2z"></path> <path d="M2384 463 c-5 -20 -2 -30 14 -43 12 -10 19 -20 17 -22 -3 -3 25 -35 61 -71 148 -151 198 -175 398 -189 129 -10 145 -9 230 12 90 22 126 41 126 66 0 32 -43 38 -245 39 -214 1 -255 8 -362 56 -59 26 -143 97 -143 121 0 16 -52 58 -72 58 -11 0 -20 -11 -24 -27z m40 1 c9 -3 16 -11 16 -16 0 -6 11 -20 23 -32 13 -12 28 -29 33 -38 21 -35 113 -88 199 -114 68 -20 114 -27 187 -28 54 -1 92 1 86 5 -7 4 13 6 42 4 91 -6 173 -16 182 -21 23 -15 1 -32 -67 -53 -62 -18 -98 -22 -204 -22 -74 1 -141 6 -158 12 -15 7 -33 13 -40 15 -7 1 -36 13 -65 27 -73 34 -258 216 -258 253 0 16 2 16 24 8z"></path> <path d="M5045 469 c-11 -16 -1 -19 13 -3 7 8 8 14 3 14 -5 0 -13 -5 -16 -11z"></path> <path d="M2595 451 c-3 -5 -2 -12 3 -15 5 -3 9 1 9 9 0 17 -3 19 -12 6z"></path> <path d="M5031 424 c0 -11 3 -14 6 -6 3 7 2 16 -1 19 -3 4 -6 -2 -5 -13z"></path> <path d="M5006 393 c-6 -14 -5 -15 5 -6 7 7 10 15 7 18 -3 3 -9 -2 -12 -12z"></path> <path d="M4990 355 c-7 -9 -8 -15 -2 -15 5 0 12 7 16 15 3 8 4 15 2 15 -2 0 -9 -7 -16 -15z"></path> <path d="M5000 325 c0 -3 7 -22 15 -42 8 -19 15 -56 16 -82 l1 -46 10 43 c7 35 6 48 -6 67 -9 14 -16 33 -16 45 0 11 -4 20 -10 20 -5 0 -10 -2 -10 -5z" class=""></path> <path d="M4481 273 c-1 -12 -7 -24 -13 -26 -10 -4 -10 -6 0 -6 15 -1 26 23 19 41 -3 7 -6 3 -6 -9z"></path> <path d="M4427 196 c-4 -10 -1 -13 8 -9 8 3 12 9 9 14 -7 12 -11 11 -17 -5z"></path> <path d="M4368 162 c-16 -10 -28 -24 -28 -32 1 -12 2 -12 10 1 5 9 21 20 35 23 14 4 25 11 25 16 0 13 -10 11 -42 -8z"></path>  <path d="M5890 72 c-39 -21 -50 -42 -23 -42 10 0 27 -2 38 -5 26 -6 66 22 47 34 -8 5 -13 12 -12 17 3 16 -15 14 -50 -4z m32 -24 c-6 -6 -16 -7 -22 -3 -9 6 -9 9 1 16 17 10 34 0 21 -13z"></path> </g> </svg>