<?xml version="1.0" standalone="no"?>
<!DOCTYPE svg PUBLIC "-//W3C//DTD SVG 20010904//EN"
 "http://www.w3.org/TR/2001/REC-SVG-20010904/DTD/svg10.dtd">
<svg version="1.0" xmlns="http://www.w3.org/2000/svg"
 width="600.000000pt" height="335.000000pt" viewBox="0 0 600.000000 335.000000"
 preserveAspectRatio="xMidYMid meet">
<g transform="translate(0.000000,335.000000) scale(0.100000,-0.100000)"
fill="#000000" stroke="none">
<path d="M2 1673 l3 -1678 2 1673 3 1672 2990 0 2990 0 3 -1672 2 -1673 3
1678 2 1677 -3000 0 -3000 0 2 -1677z"/>
<path d="M3873 3133 c-13 -2 -29 -13 -36 -24 -8 -10 -17 -16 -22 -11 -4 4 -4
-3 0 -16 3 -13 2 -28 -3 -35 -6 -7 -18 -39 -27 -72 -22 -74 -66 -166 -77 -159
-4 3 -8 -4 -8 -15 0 -13 -5 -19 -14 -15 -8 3 -17 1 -21 -5 -4 -7 1 -8 12 -4
16 6 17 5 3 -12 -26 -33 -74 -79 -113 -109 -29 -22 -41 -26 -49 -18 -7 7 -17
12 -22 12 -6 0 0 -7 12 -16 21 -14 25 -14 56 6 54 33 153 145 185 208 15 31
41 95 56 142 44 130 83 159 139 104 48 -49 86 -245 68 -359 -12 -70 -9 -81 8
-30 19 59 7 271 -18 326 -12 24 -27 51 -34 59 -15 19 -60 51 -68 49 -3 -1 -15
-4 -27 -6z"/>
<path d="M1987 3109 c-9 -5 -22 -7 -29 -3 -6 4 -8 3 -4 -4 3 -6 1 -14 -6 -19
-22 -14 -48 -70 -48 -103 0 -22 -4 -29 -12 -24 -9 5 -9 2 1 -9 7 -9 10 -17 5
-17 -5 0 -9 -47 -9 -104 0 -57 3 -100 6 -94 3 5 9 -15 12 -44 14 -115 78 -261
171 -391 47 -65 70 -117 52 -117 -8 0 -171 105 -177 114 -9 12 -53 -22 -73
-56 -29 -48 -21 -175 20 -324 59 -211 65 -245 62 -321 -1 -40 0 -74 3 -77 2
-3 5 3 6 12 0 9 3 39 5 65 6 59 -10 144 -56 299 -43 145 -51 207 -37 283 12
62 33 95 61 95 9 0 57 -27 106 -60 l89 -59 7 35 c7 31 2 41 -53 117 -124 169
-179 329 -179 523 0 144 25 236 71 259 58 30 82 7 124 -120 39 -117 80 -188
157 -268 37 -39 68 -67 68 -63 0 4 12 -4 26 -18 l27 -24 66 46 c36 25 102 63
146 84 44 21 68 36 54 34 -42 -9 -165 -70 -226 -114 -32 -23 -49 -27 -55 -14
-1 4 -22 20 -45 36 -24 16 -43 32 -43 36 0 4 -18 27 -41 51 -48 52 -83 117
-100 185 -7 27 -21 67 -32 89 -12 22 -20 43 -19 46 2 11 -32 37 -58 43 -14 3
-33 1 -43 -5z"/>
<path d="M3863 3088 c-6 -7 -26 -59 -46 -116 -19 -56 -50 -128 -68 -159 -40
-66 -117 -148 -176 -187 l-42 -28 -71 47 c-122 80 -240 123 -360 130 l-75 4
65 -9 c70 -10 229 -56 244 -71 6 -5 16 -9 23 -9 8 0 26 -8 41 -18 15 -10 49
-33 75 -51 36 -25 54 -31 73 -27 41 11 176 153 224 236 24 41 55 111 68 155
34 111 51 127 90 85 28 -30 41 -85 48 -196 5 -89 1 -138 -21 -239 -4 -21 -3
-26 3 -15 6 8 17 52 27 97 13 67 14 98 6 170 -11 95 -32 166 -58 195 -19 21
-56 24 -70 6z"/>
<path d="M3886 3069 c-3 -8 -12 -39 -21 -69 -53 -190 -147 -326 -296 -428 -40
-27 -49 -29 -59 -17 -23 28 -145 101 -210 127 -117 46 -204 61 -340 59 -169
-3 -184 -4 -192 -15 -4 -6 -22 -10 -42 -10 -19 0 -32 -4 -29 -9 3 -5 -5 -6
-18 -2 -13 4 -21 4 -16 -1 10 -10 -52 -36 -66 -27 -6 4 -7 1 -2 -7 6 -10 4
-12 -8 -7 -10 3 -17 2 -17 -4 0 -6 -4 -8 -9 -5 -5 3 -12 -1 -15 -10 -4 -9 -9
-14 -13 -11 -3 4 -12 -1 -20 -11 -9 -11 -12 -12 -8 -2 4 8 -3 4 -16 -10 -13
-14 -22 -21 -19 -15 3 6 -6 -1 -19 -15 -13 -14 -20 -19 -16 -11 6 9 4 12 -4 7
-6 -4 -9 -11 -6 -15 2 -5 -4 -16 -14 -25 -16 -14 -19 -15 -24 -2 -3 8 -32 33
-64 55 -66 46 -143 115 -143 130 0 5 -10 17 -22 25 -12 9 -18 16 -13 16 6 0 6
3 0 8 -26 19 -79 133 -102 219 -13 48 -21 63 -35 63 -10 0 -20 -6 -22 -12 -2
-7 -8 -29 -14 -48 -6 -19 -14 -78 -17 -130 -13 -186 57 -395 189 -565 42 -54
52 -73 45 -87 -11 -21 -12 -175 0 -180 13 -5 24 -48 12 -48 -13 0 -32 35 -24
44 3 3 -2 6 -13 6 -12 0 -15 3 -7 8 19 12 -7 48 -63 88 -102 74 -154 105 -163
100 -32 -20 -15 -180 39 -368 45 -157 50 -214 36 -383 -7 -85 -6 -106 7 -132
23 -43 64 -73 101 -73 29 0 31 -3 33 -38 4 -49 42 -168 59 -183 18 -14 -69
-101 -155 -154 l-64 -39 29 -13 c65 -28 203 -13 307 32 10 4 17 3 17 -4 0 -6
16 -32 36 -58 20 -27 67 -111 104 -188 74 -153 118 -208 200 -248 42 -21 58
-22 285 -23 257 -1 284 3 357 51 52 35 107 114 158 230 24 55 66 132 92 171
l48 70 68 -22 c39 -14 91 -24 125 -24 64 0 147 17 147 31 0 5 -22 21 -50 37
-27 16 -76 54 -108 85 l-60 56 23 48 c12 26 28 72 35 101 10 44 10 58 -4 92
-20 51 -20 53 4 38 11 -7 20 -16 20 -21 0 -4 -5 -5 -11 -1 -7 4 -10 1 -7 -7 7
-22 50 -21 85 0 66 41 86 131 58 256 -21 98 -16 146 38 330 35 120 41 154 42
235 0 141 0 141 -92 78 -42 -29 -96 -72 -120 -95 -24 -24 -45 -43 -47 -43 -2
0 -1 10 1 23 2 12 -2 60 -10 106 l-14 83 62 92 c108 160 162 341 151 504 -8
111 -56 254 -70 211z m24 -235 c0 -192 -60 -360 -186 -515 -37 -46 -62 -85
-58 -92 4 -7 4 -9 -1 -5 -4 4 -22 -1 -39 -11 -51 -30 -82 -33 -130 -13 -36 16
-96 77 -85 86 2 1 27 15 54 31 51 29 175 141 175 158 0 5 -23 -11 -50 -36 -28
-25 -84 -62 -126 -83 -50 -25 -73 -41 -70 -50 3 -8 1 -14 -4 -14 -13 0 -13 -1
4 62 22 84 23 84 124 140 173 95 307 251 357 419 25 81 35 60 35 -77z m-1890
105 c0 -29 54 -151 91 -207 71 -105 176 -195 304 -260 77 -38 96 -60 103 -117
l5 -46 -59 26 c-57 25 -104 56 -154 102 -14 13 -29 23 -35 23 -20 -1 135 -137
182 -160 27 -13 50 -24 52 -26 2 -2 -9 -20 -24 -40 -35 -46 -85 -67 -135 -59
-48 8 -138 94 -207 198 -27 39 -51 72 -54 72 -11 0 -39 27 -39 38 0 6 7 2 15
-9 23 -31 17 -1 -13 68 -28 62 -45 122 -57 206 -8 52 4 212 16 212 5 0 9 -9 9
-21z m1154 -260 c101 -24 215 -79 266 -128 22 -20 41 -33 44 -27 2 7 8 7 17
-1 11 -11 10 -13 -5 -13 -10 0 -14 -5 -11 -11 4 -6 -1 -5 -13 2 -16 10 -24 9
-51 -10 -83 -59 -92 -194 -19 -277 40 -46 97 -74 148 -74 45 0 70 10 113 47
16 13 32 21 36 18 17 -10 29 -125 25 -230 -5 -143 -4 -136 -28 -130 -12 3 -15
2 -8 -1 17 -8 15 -27 -2 -21 -11 4 -13 1 -9 -11 4 -13 2 -13 -10 3 -18 23 -12
42 14 50 17 6 27 40 19 70 -2 6 -2 25 -1 43 1 26 -6 40 -33 67 -19 19 -39 49
-44 67 l-9 33 -7 -38 c-6 -34 -2 -47 33 -105 52 -87 54 -93 32 -118 -16 -21
-20 -21 -67 -9 -29 8 -53 9 -58 4 -6 -5 -17 -9 -25 -9 -9 0 -41 -13 -71 -29
-164 -88 -196 -101 -238 -101 -47 0 -117 25 -108 38 3 5 -3 17 -14 27 -37 33
-19 106 43 172 11 13 18 25 15 28 -3 3 -28 -19 -56 -50 -66 -72 -73 -104 -46
-205 4 -14 4 -22 0 -18 -4 3 -16 -2 -27 -13 -25 -25 -42 -24 -84 4 -23 14 -33
27 -29 37 4 8 9 36 11 61 6 56 -10 92 -66 142 -53 48 -72 48 -31 0 43 -48 63
-98 55 -134 -4 -16 -10 -29 -13 -29 -4 0 -21 -14 -39 -30 -25 -24 -41 -30 -75
-30 -56 0 -89 10 -81 23 3 6 1 7 -6 3 -12 -8 -56 3 -47 11 6 6 -12 17 -116 69
-69 36 -148 45 -188 24 -15 -8 -22 -5 -34 12 -22 32 -21 38 24 104 39 57 47
85 34 118 -9 23 -27 20 -19 -3 4 -15 -5 -31 -36 -62 -41 -41 -41 -42 -37 -102
4 -50 9 -64 30 -81 20 -16 25 -27 21 -47 l-5 -26 -26 26 c-14 14 -31 47 -38
76 -6 27 -15 59 -20 69 -6 15 -4 18 7 14 11 -4 14 12 14 91 0 53 4 105 8 115
7 19 8 19 30 -1 120 -107 302 4 301 184 0 51 -5 67 -28 98 -17 21 -39 38 -57
42 -16 3 -29 8 -29 12 0 13 108 85 175 117 170 81 358 99 549 53z m-653 -256
c13 -16 12 -17 -3 -4 -10 7 -18 15 -18 17 0 8 8 3 21 -13z m1197 -185 c1 -27
0 -30 -9 -15 -6 9 -14 15 -20 12 -14 -9 -11 2 7 19 20 21 19 21 22 -16z
m-1478 -12 c-1 -5 18 -21 42 -37 24 -16 39 -29 33 -29 -5 0 -21 9 -35 20 -14
11 -33 20 -42 20 -11 0 -18 8 -18 21 0 11 5 19 11 17 6 -2 10 -7 9 -12z m1757
-41 c0 -8 -4 -12 -9 -9 -5 3 -6 10 -3 15 9 13 12 11 12 -6z m-2032 -5 c3 -5 1
-10 -4 -10 -6 0 -11 5 -11 10 0 6 2 10 4 10 3 0 8 -4 11 -10z m2025 -64 c0
-24 -12 -88 -26 -142 -71 -270 -76 -314 -60 -476 10 -102 -1 -141 -46 -164
-28 -15 -31 -14 -45 5 -8 12 -19 18 -25 15 -7 -5 -9 -2 -6 7 3 8 -2 31 -12 52
-15 30 -17 54 -13 134 4 88 2 101 -16 123 l-21 25 10 -33 c17 -63 -16 -168
-71 -223 -39 -39 -125 -85 -164 -87 -43 -3 -50 1 -155 81 -50 38 -70 47 -102
47 -22 0 -48 -4 -58 -10 -21 -11 -64 -80 -50 -80 6 0 10 4 10 8 0 12 46 32 74
32 46 0 88 -86 62 -128 -13 -22 -80 -59 -116 -66 -32 -5 -33 -5 -10 5 81 36
93 52 42 57 -26 3 -40 -4 -74 -37 -23 -23 -37 -41 -32 -41 5 -1 -2 -9 -15 -20
-12 -11 -27 -17 -32 -14 -5 3 -9 1 -9 -4 0 -15 -76 -13 -114 3 -20 9 -55 33
-77 55 -23 22 -51 40 -63 40 -17 0 -18 2 -6 10 12 8 9 10 -12 10 -16 0 -28 -3
-28 -7 0 -14 34 -43 50 -43 9 0 25 -7 36 -16 18 -14 18 -14 -6 -3 -14 7 -26
12 -27 11 -14 -9 -46 4 -76 31 -30 26 -37 40 -37 68 0 71 52 106 115 77 28
-12 35 -34 8 -23 -10 4 -29 9 -43 12 -14 2 -8 -3 14 -11 25 -9 46 -11 60 -6
11 5 16 9 9 9 -6 1 -20 14 -29 30 -28 48 -107 69 -134 36 -7 -8 -18 -15 -24
-15 -6 0 -33 -21 -60 -45 -93 -85 -156 -83 -259 5 -82 69 -112 128 -111 213 1
56 0 58 -13 33 -16 -30 -19 -98 -8 -172 6 -43 4 -58 -20 -107 -23 -49 -30 -57
-54 -57 -17 0 -37 10 -52 26 -21 22 -24 34 -23 97 6 314 12 259 -57 507 -24
85 -36 210 -21 210 6 0 12 -3 14 -7 2 -5 30 -28 63 -52 116 -85 158 -157 157
-267 0 -50 9 -67 23 -44 12 20 23 9 33 -32 17 -65 63 -130 118 -165 51 -32
111 -52 99 -33 -3 5 -14 10 -25 10 -34 0 -110 81 -129 138 -21 60 -15 115 12
120 14 3 17 -4 17 -35 0 -81 77 -175 168 -204 20 -7 87 -13 148 -14 127 -2
150 -12 184 -78 l21 -42 -3 48 c-2 51 -20 87 -44 87 -19 0 -18 14 4 33 15 13
20 14 36 1 11 -7 28 -26 39 -41 l19 -28 -6 27 c-10 46 -25 78 -36 78 -5 0 -10
7 -10 15 0 19 19 19 44 0 25 -19 97 -19 122 0 39 30 62 9 25 -23 -18 -15 -46
-91 -37 -99 2 -2 13 12 24 31 11 19 29 39 41 45 16 9 23 7 35 -11 15 -21 15
-23 -3 -30 -18 -6 -47 -46 -43 -58 1 -3 -1 -20 -4 -38 -4 -20 -2 -38 5 -45 8
-8 11 -4 11 16 0 35 53 94 93 105 18 5 62 7 98 4 109 -7 221 35 272 101 30 40
51 101 44 133 -3 20 0 24 19 24 22 0 24 -4 24 -50 0 -77 -38 -141 -117 -197
-55 -39 -50 -42 15 -9 84 42 152 135 152 206 0 35 3 36 39 10 l28 -19 -10 38
c-14 52 13 163 51 211 33 41 173 150 185 143 4 -2 7 -24 7 -47z m-220 -86 c0
-4 -9 -18 -21 -31 -11 -13 -17 -17 -13 -9 5 8 7 25 5 37 -2 17 1 21 13 17 9
-3 16 -10 16 -14z m-196 -228 c-5 -65 -22 -100 -66 -137 -35 -30 -117 -69
-126 -60 -3 3 -11 0 -19 -6 -10 -9 -13 -8 -13 2 0 9 -3 10 -8 4 -4 -6 -38 -11
-77 -10 -38 0 -80 -4 -92 -8 -17 -6 -21 -4 -19 10 2 10 -9 30 -23 46 -14 16
-35 39 -46 51 -12 13 -20 38 -21 59 l-1 37 22 -24 c38 -41 82 -54 145 -44 30
5 64 10 75 11 11 1 24 7 28 14 4 7 24 20 45 30 20 9 57 30 82 45 24 16 51 26
58 23 7 -2 10 -1 7 4 -3 6 8 9 24 9 29 -1 29 -1 25 -56z m-1124 32 c17 -3 28
-9 25 -14 -2 -4 8 -10 23 -13 15 -3 44 -17 65 -31 21 -15 36 -22 32 -16 -3 6
0 7 9 4 9 -3 16 -10 16 -15 0 -5 9 -9 19 -9 11 0 26 -6 33 -14 10 -9 29 -12
62 -9 39 4 47 2 42 -8 -4 -8 -1 -6 7 4 8 9 20 17 28 17 8 0 23 7 33 15 27 21
39 19 33 -5 -3 -11 0 -20 5 -20 6 0 -1 -10 -16 -21 -15 -12 -25 -28 -22 -35 3
-9 -2 -14 -14 -14 -11 0 -19 -3 -18 -7 1 -5 -3 -17 -9 -28 -10 -18 -21 -20
-115 -19 -56 0 -116 4 -133 9 -36 9 -103 44 -127 65 -23 21 -47 79 -50 124 -1
20 -6 36 -10 36 -4 0 -8 5 -8 11 0 6 12 8 30 5 17 -3 44 -9 60 -12z m1273
-372 c-3 -12 -9 -19 -14 -16 -5 3 -3 14 3 24 15 24 19 21 11 -8z m-1449 -34
c17 -18 49 -48 71 -66 27 -22 33 -31 19 -27 -13 3 -31 -3 -47 -15 l-27 -21 18
30 17 30 -40 41 c-21 22 -45 40 -53 40 -7 0 -10 5 -7 10 9 15 15 13 49 -22z
m399 -12 c-28 -33 -50 -35 -37 -3 4 13 34 30 62 36 2 1 -9 -14 -25 -33z m614
19 c16 -8 38 -24 48 -35 18 -20 18 -21 -1 -14 -12 4 -6 -7 18 -30 21 -20 48
-36 60 -36 22 -1 21 -2 -8 -28 -33 -29 -84 -94 -84 -107 0 -4 19 11 42 34 49
48 101 75 176 92 48 11 55 11 79 -7 35 -26 47 -64 38 -121 -8 -56 -25 -40 -25
24 0 72 -49 97 -128 68 -31 -12 -73 -43 -122 -91 -88 -85 -136 -109 -258 -130
-48 -8 -100 -20 -117 -26 -39 -13 -238 23 -310 56 -47 22 -125 88 -125 107 0
4 -28 27 -61 50 -102 69 -169 54 -184 -39 -11 -64 -19 -69 -23 -13 -5 78 3
100 42 116 59 25 168 -13 253 -88 18 -16 31 -23 28 -14 -8 20 39 14 61 -7 9
-9 24 -14 33 -11 9 3 26 -2 37 -10 21 -16 38 -20 30 -6 -4 5 0 11 6 14 7 2 -5
8 -27 12 -73 13 -104 26 -130 56 -26 32 -32 31 -15 -1 15 -28 -5 -34 -27 -7
-10 12 -30 32 -46 44 l-27 21 27 10 c16 5 41 22 57 38 l29 29 -7 -32 c-9 -41
14 -93 52 -115 15 -9 50 -19 77 -23 36 -6 58 -16 77 -36 63 -65 150 -84 222
-49 25 12 56 34 69 50 18 21 37 30 73 35 67 10 102 30 121 69 20 43 13 71 -32
124 -41 47 -41 48 2 27z m473 -187 c0 -26 -5 -59 -12 -75 -13 -33 -12 -30 -22
-65 -10 -34 -19 -35 -39 -5 -13 20 -13 30 -1 77 8 30 14 69 14 88 0 36 -25 92
-41 92 -5 0 5 15 23 34 l32 33 22 -66 c13 -36 23 -87 24 -113z m-1487 136 c16
-19 25 -34 20 -34 -30 0 -43 -118 -22 -191 10 -33 9 -42 -7 -66 -10 -15 -17
-34 -16 -40 2 -7 -2 -13 -7 -13 -6 0 -10 12 -9 28 0 15 -7 47 -16 71 -30 79
-31 127 -5 207 13 41 26 74 29 73 3 0 18 -16 33 -35z m1368 -8 c-10 -12 -10
-20 0 -38 16 -29 20 -50 8 -42 -5 3 -7 9 -4 14 3 4 -2 11 -11 14 -8 3 -13 10
-10 14 3 5 -6 7 -19 4 -34 -6 -31 2 8 27 38 25 43 26 28 7z m-1546 -74 c-3 -3
-11 0 -18 7 -9 10 -8 11 6 5 10 -3 15 -9 12 -12z m77 -12 c-6 -15 -11 -19 -16
-12 -4 7 -17 12 -29 13 -16 0 -13 3 13 13 19 7 36 11 38 11 1 -1 -1 -13 -6
-25z m1416 -55 c-3 -3 -9 2 -12 12 -6 14 -5 15 5 6 7 -7 10 -15 7 -18z m-9
-43 c56 -111 142 -206 276 -306 19 -14 16 -15 -37 -16 -115 0 -271 74 -366
174 -64 67 -72 91 -40 122 l23 24 44 -60 c24 -33 64 -76 88 -96 24 -20 42 -39
39 -42 -9 -9 -96 68 -134 119 -39 52 -47 57 -55 35 -4 -10 -1 -13 8 -10 7 3
16 -3 19 -14 4 -10 22 -36 41 -58 19 -21 35 -43 35 -47 0 -5 4 -6 9 -3 5 3 20
-3 34 -14 14 -11 33 -20 42 -20 9 0 13 -5 10 -10 -4 -6 -3 -10 2 -9 12 3 60
-18 68 -30 9 -16 55 -38 95 -45 34 -7 33 -6 -15 21 -83 47 -138 89 -183 137
-43 47 -112 148 -112 164 0 7 55 37 77 41 2 1 16 -25 32 -57z m-1216 33 c-3
-9 -8 -14 -10 -11 -3 3 -2 9 2 15 9 16 15 13 8 -4z m92 3 c30 -13 30 -19 8
-61 -54 -105 -148 -192 -288 -266 -22 -12 -33 -21 -25 -21 27 0 90 21 90 30 0
4 9 6 20 3 16 -4 19 -2 14 11 -3 9 -1 16 5 16 6 0 11 -6 12 -12 0 -8 3 -7 6 2
7 17 34 46 41 43 3 -1 9 -7 13 -15 7 -10 9 -9 9 3 0 19 41 49 66 49 10 0 15 3
11 6 -8 8 25 44 35 38 4 -3 8 2 8 11 0 9 4 13 10 10 6 -4 7 1 3 11 -4 11 -2
15 4 11 5 -3 15 9 21 28 12 41 1 46 -19 9 -16 -30 -137 -144 -152 -144 -6 0
14 23 46 50 31 28 70 73 88 100 l32 49 29 -30 c33 -32 34 -27 -26 -99 -89
-106 -264 -197 -362 -188 -18 1 -36 -1 -40 -5 -10 -10 -34 -9 -34 1 0 5 10 13
23 19 70 33 238 222 274 308 19 48 33 54 78 33z m457 -68 c6 0 9 -3 6 -6 -9
-8 -48 14 -48 27 0 6 7 3 16 -5 8 -9 20 -16 26 -16z m-226 -110 c19 0 26 -17
15 -37 -22 -41 -41 -92 -41 -108 0 -14 3 -15 15 -5 8 7 15 20 15 30 0 28 10
30 48 10 21 -11 53 -21 74 -24 20 -2 44 -9 55 -14 10 -6 36 -8 58 -6 22 2 47
3 55 3 73 -2 112 1 150 11 25 7 50 13 55 14 6 2 23 9 39 17 20 9 31 10 33 3 2
-6 10 -20 18 -30 14 -18 14 -18 14 6 0 14 -8 43 -19 65 -25 52 -25 52 13 71
17 9 42 26 55 37 l22 20 0 -44 c0 -24 -9 -62 -20 -84 -11 -22 -18 -31 -14 -20
3 11 8 38 11 60 3 31 2 36 -6 23 -6 -9 -12 -39 -13 -68 -1 -28 -6 -54 -11 -57
-4 -2 -5 -14 -1 -25 4 -14 2 -18 -5 -14 -6 4 -11 1 -11 -6 0 -18 -61 -86 -80
-89 -25 -5 -71 11 -65 21 4 6 -4 6 -20 0 -15 -6 -31 -7 -37 -4 -21 13 -71 14
-86 1 -9 -6 -13 -7 -9 -1 10 17 -119 15 -134 -2 -8 -10 -22 -12 -44 -8 -18 3
-43 1 -55 -6 -19 -10 -25 -7 -56 27 -48 51 -105 175 -111 241 l-6 54 43 -31
c24 -17 49 -31 56 -31z m-92 -82 c3 -15 12 -33 19 -40 6 -7 14 -22 15 -33 7
-36 40 -90 75 -122 39 -35 58 -90 36 -104 -30 -19 -60 -21 -85 -5 -37 25 -47
61 -40 148 3 45 1 80 -4 83 -6 4 -7 -1 -3 -11 5 -13 3 -15 -7 -9 -10 6 -12 4
-6 -11 5 -14 4 -16 -4 -8 -6 6 -13 18 -14 25 -6 30 -25 67 -50 96 l-27 32 33
36 32 37 12 -44 c6 -23 15 -55 18 -70z m830 12 c-21 -22 -38 -55 -48 -90 -10
-39 -15 -47 -15 -27 -1 19 -5 26 -13 21 -7 -4 -8 -3 -4 4 4 7 3 12 -3 12 -12
0 -5 24 18 59 9 14 17 36 18 50 1 14 4 35 7 46 2 11 5 22 5 25 1 3 16 -11 35
-30 l34 -35 -34 -35z m290 74 c3 -8 2 -12 -4 -9 -6 3 -10 10 -10 16 0 14 7 11
14 -7z m-891 -41 c13 -8 8 -83 -5 -83 -27 1 -98 40 -98 54 0 39 12 47 54 41
22 -4 44 -9 49 -12z m402 -18 c0 -26 -5 -31 -49 -47 -28 -9 -52 -16 -54 -13
-2 2 0 21 5 42 7 31 14 39 38 44 49 11 60 6 60 -26z m-286 -8 c17 -8 27 -22
29 -40 3 -27 3 -27 -57 -27 l-61 0 0 46 0 47 31 -7 c17 -3 43 -12 58 -19z
m163 12 c2 -6 2 -26 0 -44 -4 -33 -5 -33 -58 -37 l-55 -3 3 34 c3 29 8 36 38
47 45 16 67 17 72 3z m-595 -36 c33 -43 54 -99 63 -170 11 -89 34 -139 72
-161 31 -18 47 -15 171 32 113 43 259 35 390 -23 61 -26 87 -26 121 0 38 30
55 69 62 146 6 60 33 140 63 182 8 12 12 12 25 2 13 -11 12 -16 -9 -46 -22
-34 -62 -171 -52 -181 3 -3 13 19 22 48 10 29 31 74 47 100 l30 48 32 -18 c17
-9 33 -18 36 -20 3 -2 -5 -11 -16 -20 -25 -20 -74 -93 -97 -144 -53 -119 -71
-167 -63 -175 3 -3 6 1 6 10 0 10 5 17 10 17 13 0 13 -6 0 -31 -6 -10 -15 -19
-21 -19 -6 0 -34 -24 -62 -53 -107 -111 -185 -122 -301 -43 -21 14 -46 26 -55
26 -8 0 -42 -16 -75 -36 -75 -47 -127 -53 -191 -25 -26 11 -52 18 -59 14 -6
-3 -8 -3 -4 2 4 4 -11 28 -32 53 -52 59 -52 76 0 50 49 -25 82 -18 153 29 82
56 88 68 14 28 -104 -56 -170 -47 -207 29 -21 45 -28 86 -8 51 6 -11 22 -30
34 -41 13 -12 20 -25 17 -28 -4 -3 -2 -6 3 -7 15 -1 41 -7 62 -13 11 -4 23 -2
27 4 3 6 11 7 17 4 7 -4 8 -2 4 4 -4 8 0 12 11 12 10 0 33 9 51 20 18 11 39
20 45 19 7 -1 21 2 32 7 11 4 62 8 112 9 103 0 122 9 41 18 -79 9 -174 -7
-258 -42 -55 -24 -84 -31 -107 -26 -40 7 -90 63 -99 110 -3 19 -10 35 -15 35
-5 0 -9 6 -9 14 0 32 -41 143 -61 164 -16 18 -18 26 -9 37 16 19 20 19 37 -2z
m-7 -128 c12 -27 29 -64 37 -82 8 -17 12 -36 9 -42 -4 -6 -4 -11 1 -11 4 0 8
-25 9 -56 0 -41 4 -58 17 -65 15 -9 15 -11 -1 -29 -16 -20 -16 -20 -29 3 -15
27 -16 40 -3 32 32 -20 -109 253 -154 298 -14 14 -13 17 17 36 l32 20 22 -27
c12 -15 31 -49 43 -77z m839 -52 c1 -62 -2 -76 -23 -100 -22 -25 -27 -26 -62
-17 -36 8 -39 12 -38 41 1 23 16 48 48 85 26 29 49 64 53 78 6 23 7 23 14 5 4
-11 8 -52 8 -92z m-369 -22 c0 -28 -3 -30 -45 -37 -50 -7 -61 -3 -51 21 4 11
14 14 35 10 17 -3 33 0 37 6 5 9 -6 10 -40 7 -43 -5 -55 0 -39 15 3 4 28 7 55
7 46 0 48 -1 48 -29z m108 20 c16 -10 6 -61 -13 -61 -34 0 -75 14 -72 24 2 6
0 19 -5 29 -8 15 -3 17 34 17 24 0 49 -4 56 -9z m-228 -35 c0 -29 -4 -36 -31
-45 -46 -16 -59 -14 -59 11 0 12 3 18 7 15 3 -4 13 -1 21 6 13 10 14 9 8 -1
-6 -10 -2 -10 18 -1 29 13 25 33 -5 24 -10 -3 -28 -8 -39 -11 -11 -3 -20 -1
-20 4 0 9 55 28 88 31 7 1 12 -12 12 -33z m306 23 c41 -11 57 -30 34 -44 -5
-3 -6 -13 -3 -22 5 -13 2 -15 -18 -9 -13 4 -34 10 -46 13 -18 4 -22 12 -21 39
1 19 3 34 5 34 2 0 24 -5 49 -11z m-652 -125 c3 -8 2 -12 -4 -9 -6 3 -10 10
-10 16 0 14 7 11 14 -7z m534 -226 c23 -13 42 -25 42 -28 0 -3 -50 -5 -110 -6
-109 0 -110 0 -82 18 15 10 33 16 39 13 7 -2 12 -1 12 3 -5 30 41 30 99 0z"/>
<path d="M3845 2705 c-63 -149 -226 -333 -377 -425 -18 -11 -27 -20 -20 -20 8
0 10 -5 5 -12 -9 -16 41 16 67 42 11 11 31 22 45 26 14 3 25 13 25 21 0 8 3
12 8 10 4 -3 16 5 27 16 11 11 14 17 6 12 -7 -4 10 16 38 44 30 30 56 49 63
45 7 -4 8 -3 4 5 -5 7 8 33 31 64 52 69 89 136 103 187 17 64 6 57 -25 -15z"/>
<path d="M3809 2513 c-13 -21 -27 -41 -32 -44 -5 -3 -9 -10 -9 -15 -1 -19 -11
-34 -19 -28 -5 3 -9 -2 -9 -10 0 -38 20 -15 72 82 33 60 30 70 -3 15z"/>
<path d="M3720 2372 c0 -11 -12 -24 -26 -30 -14 -7 -22 -17 -19 -23 8 -12 27
2 56 43 17 23 18 28 5 28 -9 0 -16 -8 -16 -18z"/>
<path d="M3650 2306 c0 -2 7 -7 16 -10 8 -3 12 -2 9 4 -6 10 -25 14 -25 6z"/>
<path d="M3629 2273 c-10 -11 -10 -14 -1 -9 7 4 12 2 12 -5 0 -16 13 -3 16 16
3 20 -10 19 -27 -2z"/>
<path d="M3600 2230 c0 -5 7 -7 15 -4 8 4 15 8 15 10 0 2 -7 4 -15 4 -8 0 -15
-4 -15 -10z"/>
<path d="M2005 2828 c10 -44 26 -113 28 -123 2 -5 11 -25 20 -42 10 -18 14
-33 10 -33 -5 0 -3 -4 2 -8 6 -4 22 -25 36 -48 15 -22 45 -62 68 -88 23 -26
38 -52 35 -58 -4 -6 -3 -8 2 -5 5 3 43 -26 83 -64 41 -38 77 -66 82 -63 5 3 6
-3 2 -12 -5 -12 -3 -15 6 -9 8 4 25 -1 42 -14 17 -12 38 -21 47 -19 12 3 4 12
-28 32 -191 121 -353 322 -410 509 -19 63 -36 93 -25 45z"/>
<path d="M2116 2462 c-7 -12 52 -101 102 -152 24 -24 31 -28 23 -12 -6 12 -9
22 -5 22 4 0 -12 19 -36 43 -24 23 -43 43 -42 45 1 1 2 8 2 15 0 9 -2 9 -9 -1
-7 -11 -10 -10 -15 3 -3 9 -4 21 -1 25 3 5 1 11 -4 14 -5 4 -12 3 -15 -2z"/>
<path d="M2300 2220 c6 -11 16 -20 23 -19 9 0 9 2 -1 6 -6 2 -10 8 -7 13 3 4
-2 11 -10 14 -13 4 -14 2 -5 -14z"/>
<path d="M3080 2670 c19 -13 30 -13 30 0 0 6 -10 10 -22 10 -19 0 -20 -2 -8
-10z"/>
<path d="M3157 2660 c4 -4 40 -17 78 -30 85 -27 127 -48 121 -59 -3 -4 1 -8 9
-8 32 0 12 19 -48 48 -61 28 -177 64 -160 49z"/>
<path d="M2608 2340 c-4 -14 -9 -41 -13 -61 -7 -49 -61 -127 -104 -153 -38
-22 -40 -23 -70 -25 -14 -1 -17 -7 -13 -26 5 -30 14 -30 67 -6 87 39 150 149
143 248 -3 38 -5 43 -10 23z"/>
<path d="M3301 2324 c-3 -98 61 -209 143 -248 49 -23 66 -21 66 10 0 23 -3 26
-26 21 -16 -3 -28 0 -31 9 -3 8 -9 11 -15 8 -13 -8 -88 73 -105 115 -9 20 -19
56 -23 81 l-8 45 -1 -41z"/>
<path d="M3280 2251 c0 -6 4 -13 10 -16 6 -3 7 1 4 9 -7 18 -14 21 -14 7z"/>
<path d="M3321 2144 c0 -11 3 -14 6 -6 3 7 2 16 -1 19 -3 4 -6 -2 -5 -13z"/>
<path d="M3357 2089 c7 -7 15 -10 18 -7 3 3 -2 9 -12 12 -14 6 -15 5 -6 -5z"/>
<path d="M3137 2029 c7 -7 15 -10 18 -7 3 3 -2 9 -12 12 -14 6 -15 5 -6 -5z"/>
<path d="M3146 1972 l-19 -27 24 22 c12 12 21 24 18 27 -2 2 -13 -8 -23 -22z"/>
<path d="M3110 1925 c-7 -8 -9 -15 -4 -15 4 0 3 -5 -4 -12 -7 -7 -12 -17 -12
-22 0 -6 5 -3 11 7 6 10 15 14 22 10 7 -4 5 2 -3 12 -13 17 -13 18 1 13 10 -4
16 -1 16 8 0 18 -11 18 -27 -1z"/>
<path d="M2980 1832 c0 -5 5 -13 12 -20 9 -9 8 -12 -5 -12 -16 0 -17 -10 -8
-75 1 -5 8 -2 16 8 7 11 11 26 8 35 -5 11 -3 13 7 7 10 -6 12 -2 7 16 -4 13
-7 27 -7 30 0 10 -30 20 -30 11z"/>
<path d="M3188 1793 c7 -3 16 -2 19 1 4 3 -2 6 -13 5 -11 0 -14 -3 -6 -6z"/>
<path d="M3920 2102 c0 -7 -7 -12 -15 -12 -8 0 -15 -3 -15 -7 0 -5 -13 -15
-29 -24 -44 -25 -114 -159 -83 -159 6 0 13 14 17 30 4 17 10 30 15 30 4 0 7 8
6 18 0 10 5 16 13 14 8 -2 11 3 8 11 -7 19 12 37 31 30 10 -4 13 -2 8 5 -4 8
2 16 17 21 14 6 27 16 30 23 2 7 7 10 11 7 4 -4 -11 -31 -33 -60 -90 -119
-135 -256 -107 -324 8 -18 19 -36 25 -39 16 -10 13 -86 -4 -120 -22 -41 -12
-43 16 -4 20 27 24 45 24 103 -1 39 -5 98 -9 131 -7 49 -5 71 9 108 17 44 39
57 28 16 -3 -11 -2 -37 3 -57 7 -32 9 -22 15 64 5 78 11 110 28 139 20 34 21
39 7 53 -11 10 -16 11 -16 3z m-86 -402 c10 -13 9 -13 -6 -1 -10 7 -18 21 -17
30 0 13 1 14 6 1 3 -8 11 -22 17 -30z"/>
<path d="M2010 2055 c0 -3 7 -20 17 -38 10 -20 18 -67 21 -125 3 -51 7 -90 9
-88 3 3 8 29 12 58 l7 53 19 -49 c17 -43 17 -56 7 -117 -7 -38 -12 -87 -12
-109 0 -48 26 -116 47 -124 13 -5 13 -9 2 -24 -13 -15 -12 -16 3 -4 9 8 23 11
30 7 7 -4 6 -1 -2 7 -53 45 -66 118 -29 169 27 38 27 116 0 193 -24 68 -131
224 -131 191z m121 -358 c-9 -9 -10 -5 -7 13 6 36 8 37 13 16 3 -10 0 -23 -6
-29z"/>
<path d="M3710 1766 c0 -8 -3 -22 -7 -32 -5 -14 -2 -13 15 4 26 26 26 28 7 36
-9 3 -15 0 -15 -8z"/>
<path d="M2228 1765 c-4 -4 -3 -15 1 -24 28 -54 45 -98 44 -108 0 -6 6 -9 15
-6 11 5 13 3 7 -7 -6 -9 -4 -11 5 -5 10 6 12 4 7 -8 -5 -12 -1 -17 13 -17 11
0 20 -4 20 -10 0 -5 14 -16 30 -25 17 -9 30 -13 30 -9 0 4 6 1 13 -5 8 -6 17
-8 20 -5 3 3 -20 19 -51 35 -65 33 -116 93 -135 159 -7 23 -15 39 -19 35z"/>
<path d="M3601 1717 c-19 -49 -127 -147 -154 -139 -5 1 -6 -2 -2 -8 6 -10 76
30 110 65 33 34 73 105 59 105 -2 0 -8 -10 -13 -23z"/>
<path d="M3690 1700 c0 -5 0 -13 1 -16 0 -3 -25 -30 -56 -59 -42 -40 -50 -53
-35 -52 11 1 20 8 20 15 0 9 6 12 16 8 8 -3 12 -2 9 4 -3 6 -1 10 5 10 6 0 8
5 5 10 -3 6 -2 10 4 10 9 0 51 60 51 74 0 3 -4 6 -10 6 -5 0 -10 -4 -10 -10z"/>
<path d="M2360 1671 c17 -32 127 -111 155 -111 8 0 15 -5 15 -11 0 -5 4 -7 10
-4 5 3 27 1 47 -5 25 -7 52 -8 78 -2 39 8 37 9 -35 14 -102 8 -179 39 -235 94
-25 24 -41 35 -35 25z"/>
<path d="M3787 1660 c9 -16 21 -30 25 -30 5 0 -1 14 -14 30 -12 17 -23 30 -25
30 -2 0 4 -13 14 -30z"/>
<path d="M2156 1654 c-5 -14 -4 -15 9 -4 17 14 19 20 6 20 -5 0 -12 -7 -15
-16z"/>
<path d="M3705 1640 c3 -5 8 -10 11 -10 2 0 4 5 4 10 0 6 -5 10 -11 10 -5 0
-7 -4 -4 -10z"/>
<path d="M2943 1621 c3 -12 1 -24 -4 -27 -5 -3 -9 -11 -8 -17 1 -7 1 -20 0
-31 -1 -14 -4 -16 -14 -7 -17 13 -28 5 -20 -16 5 -12 7 -12 14 -1 7 10 9 10 9
1 0 -9 6 -7 18 5 12 11 14 20 8 24 -7 5 -7 8 2 8 6 0 12 7 12 15 0 8 4 15 10
15 17 0 4 45 -15 49 -14 2 -17 -2 -12 -18z"/>
<path d="M2071 1568 c-1 -16 4 -28 10 -28 5 0 7 -5 3 -12 -4 -6 -3 -8 3 -5 6
4 14 -3 18 -16 4 -14 8 -17 12 -9 3 7 -2 21 -10 30 -9 10 -20 29 -26 42 l-10
25 0 -27z"/>
<path d="M3857 1554 c-13 -26 -14 -35 -5 -32 7 3 13 9 14 14 0 5 4 17 9 27 15
35 -2 26 -18 -9z"/>
<path d="M2723 1553 c9 -2 23 -2 30 0 6 3 -1 5 -18 5 -16 0 -22 -2 -12 -5z"/>
<path d="M3378 1553 c6 -2 18 -2 25 0 6 3 1 5 -13 5 -14 0 -19 -2 -12 -5z"/>
<path d="M3308 1543 c7 -3 16 -2 19 1 4 3 -2 6 -13 5 -11 0 -14 -3 -6 -6z"/>
<path d="M2786 1532 c-3 -5 4 -12 15 -15 12 -3 18 -10 15 -15 -3 -5 1 -15 9
-22 8 -7 15 -21 15 -31 0 -11 5 -19 10 -19 15 0 12 15 -10 42 -10 14 -17 27
-15 30 3 3 -3 13 -14 22 -11 10 -22 13 -25 8z"/>
<path d="M2940 1514 c0 -7 5 -16 12 -20 6 -4 8 -3 4 4 -3 6 3 12 16 14 21 3
21 4 -4 9 -19 4 -28 2 -28 -7z"/>
<path d="M3827 1493 c3 -7 6 -13 8 -13 2 0 5 6 8 13 3 8 -1 14 -8 14 -7 0 -11
-6 -8 -14z"/>
<path d="M2883 1453 c-4 -10 -14 -24 -22 -31 -14 -11 -14 -12 4 -10 12 2 21
12 23 26 2 13 8 20 14 16 7 -4 8 -2 4 4 -10 16 -16 15 -23 -5z"/>
<path d="M2950 1370 c0 -5 5 -10 11 -10 5 0 7 5 4 10 -3 6 -8 10 -11 10 -2 0
-4 -4 -4 -10z"/>
<path d="M2810 1166 c0 -2 8 -10 18 -17 15 -13 16 -12 3 4 -13 16 -21 21 -21
13z"/>
<path d="M3070 1106 c0 -2 7 -7 16 -10 8 -3 12 -2 9 4 -6 10 -25 14 -25 6z"/>
<path d="M2240 1376 c0 -2 8 -10 18 -17 15 -13 16 -12 3 4 -13 16 -21 21 -21
13z"/>
<path d="M2241 1165 c1 -19 18 -51 18 -35 0 8 -4 22 -9 30 -5 8 -9 11 -9 5z"/>
<path d="M3715 960 c3 -5 8 -10 11 -10 2 0 4 5 4 10 0 6 -5 10 -11 10 -5 0 -7
-4 -4 -10z"/>
<path d="M2617 1033 c8 -50 13 -55 13 -10 0 20 -4 38 -9 42 -6 3 -7 -10 -4
-32z"/>
<path d="M2626 821 c-12 -20 6 -117 24 -129 16 -10 16 -7 -1 39 -27 70 -24 91
5 49 13 -19 21 -39 18 -44 -3 -5 0 -6 6 -2 6 3 20 -6 31 -20 15 -19 21 -22 21
-11 0 9 -21 40 -46 69 -26 29 -48 54 -49 56 -2 2 -6 -1 -9 -7z"/>
<path d="M2750 1000 c0 -5 3 -9 8 -8 4 1 17 -3 30 -10 18 -11 22 -10 22 1 0 8
-10 17 -22 21 -32 8 -38 7 -38 -4z"/>
<path d="M3015 970 c-3 -5 -2 -10 4 -10 5 0 13 5 16 10 3 6 2 10 -4 10 -5 0
-13 -4 -16 -10z"/>
<path d="M2531 860 c15 -45 24 -54 15 -15 -4 17 -12 34 -17 40 -5 5 -4 -6 2
-25z"/>
<path d="M3394 674 c-18 -57 -29 -77 -56 -99 -36 -30 -75 -32 -127 -5 -47 23
-134 54 -107 37 10 -7 45 -30 79 -52 69 -46 110 -50 172 -17 22 12 33 21 25
22 -11 0 -12 2 -3 8 7 4 17 32 23 62 10 52 6 81 -6 44z"/>
<path d="M3115 640 c-3 -6 1 -7 9 -4 18 7 21 14 7 14 -6 0 -13 -4 -16 -10z"/>
<path d="M3163 625 c0 -8 4 -15 9 -15 4 0 8 4 8 9 0 6 -4 12 -8 15 -5 3 -9 -1
-9 -9z"/>
<path d="M3295 600 c-3 -6 1 -7 9 -4 18 7 21 14 7 14 -6 0 -13 -4 -16 -10z"/>
<path d="M2776 545 c-53 -34 -79 -45 -109 -45 -50 0 -42 -11 12 -17 31 -4 44
0 60 16 12 12 28 21 37 21 8 0 12 5 9 10 -3 6 -1 10 5 10 6 0 18 7 27 15 8 8
19 12 25 9 6 -4 8 -2 4 4 -3 5 0 13 6 15 7 3 9 6 3 6 -5 0 -41 -20 -79 -44z"/>
<path d="M3140 546 c0 -2 7 -7 16 -10 8 -3 12 -2 9 4 -6 10 -25 14 -25 6z"/>
<path d="M2412 901 c-10 -6 -5 -11 18 -20 25 -8 31 -15 27 -31 -3 -11 -2 -18
2 -15 4 2 21 -23 36 -55 16 -33 30 -58 32 -56 6 5 -40 109 -65 149 -26 40 -30
41 -50 28z"/>
<path d="M3320 795 c-1 -18 -11 -49 -35 -110 -8 -20 -8 -20 13 -1 21 18 39 92
29 118 -3 8 -6 5 -7 -7z"/>
<path d="M3023 763 c9 -2 23 -2 30 0 6 3 -1 5 -18 5 -16 0 -22 -2 -12 -5z"/>
<path d="M3135 740 c3 -5 12 -7 20 -3 21 7 19 13 -6 13 -11 0 -18 -4 -14 -10z"/>
<path d="M3018 2825 c-2 -2 -51 -5 -109 -6 -74 -1 -97 -4 -80 -10 14 -6 64 -6
117 -1 52 4 94 5 94 2 0 -3 15 -6 33 -7 21 -1 27 1 17 6 -21 12 -66 22 -72 16z"/>
<path d="M3385 2810 c7 -11 45 -20 45 -10 0 4 -11 10 -25 12 -13 3 -22 2 -20
-2z"/>
<path d="M2570 2790 c-9 -6 -10 -10 -3 -10 6 0 15 5 18 10 8 12 4 12 -15 0z"/>
<path d="M3175 2790 c3 -5 8 -10 11 -10 2 0 4 5 4 10 0 6 -5 10 -11 10 -5 0
-7 -4 -4 -10z"/>
<path d="M2711 2779 c-55 -16 -28 -20 30 -5 30 8 43 15 29 14 -14 0 -40 -4
-59 -9z"/>
<path d="M3533 2783 c15 -2 37 -2 50 0 12 2 0 4 -28 4 -27 0 -38 -2 -22 -4z"/>
<path d="M2280 2730 c0 -5 5 -10 11 -10 5 0 7 5 4 10 -3 6 -8 10 -11 10 -2 0
-4 -4 -4 -10z"/>
<path d="M2385 2730 c4 -6 11 -8 16 -5 14 9 11 15 -7 15 -8 0 -12 -5 -9 -10z"/>
<path d="M3990 2648 c0 -17 -50 -138 -85 -208 -36 -71 -64 -112 -75 -105 -4 3
-14 -3 -21 -13 -13 -15 -12 -16 4 -3 21 17 22 8 1 -24 -16 -25 -42 -36 -28
-12 4 6 3 9 -1 5 -5 -5 -9 -19 -11 -33 l-3 -24 23 22 c66 65 139 189 179 302
14 39 28 78 32 88 4 10 3 17 -4 17 -6 0 -11 -6 -11 -12z"/>
<path d="M3940 2585 c0 -8 2 -15 4 -15 2 0 6 7 10 15 3 8 1 15 -4 15 -6 0 -10
-7 -10 -15z"/>
<path d="M3922 2531 c-6 -17 -9 -31 -6 -31 7 0 25 52 20 57 -2 2 -8 -10 -14
-26z"/>
<path d="M3950 2356 c0 -2 7 -7 16 -10 8 -3 12 -2 9 4 -6 10 -25 14 -25 6z"/>
<path d="M2011 2284 c0 -11 3 -14 6 -6 3 7 2 16 -1 19 -3 4 -6 -2 -5 -13z"/>
<path d="M4027 2288 c12 -6 30 -30 40 -54 10 -24 21 -44 26 -44 11 0 8 13 -8
33 -7 11 -11 25 -9 32 6 15 -33 45 -56 44 -10 0 -7 -4 7 -11z"/>
<path d="M3892 2233 c-45 -31 -80 -58 -77 -61 5 -5 140 85 157 105 18 22 4 15
-80 -44z"/>
<path d="M3850 2272 c0 -5 7 -13 16 -16 10 -4 14 -1 12 6 -5 15 -28 23 -28 10z"/>
<path d="M3955 2244 c-54 -36 -62 -44 -36 -37 11 3 21 8 21 12 0 4 15 14 33
23 63 30 73 5 89 -227 1 -16 -33 -127 -38 -122 -2 2 3 26 11 53 8 27 14 63 14
79 -1 27 -2 25 -9 -10 -5 -22 -22 -83 -38 -135 -16 -52 -32 -115 -35 -140 -3
-25 -4 -37 -1 -27 9 28 21 10 16 -24 -3 -23 -7 -28 -14 -18 -7 11 -8 9 -4 -4
3 -10 6 -25 6 -33 0 -8 4 -14 9 -14 4 0 11 24 14 53 3 28 24 118 46 199 23 80
41 166 41 191 0 102 -33 197 -71 205 -8 1 -32 -10 -54 -24z m46 -449 c-13 -37
-18 -47 -15 -25 9 55 28 117 32 100 1 -9 -6 -42 -17 -75z"/>
<path d="M3782 2210 c0 -8 4 -26 8 -40 6 -20 8 -21 8 -5 0 11 -3 29 -8 40 -5
12 -8 14 -8 5z"/>
<path d="M3869 2183 c-13 -16 -12 -17 4 -4 16 13 21 21 13 21 -2 0 -10 -8 -17
-17z"/>
<path d="M4092 2160 c0 -14 2 -19 5 -12 2 6 2 18 0 25 -3 6 -5 1 -5 -13z"/>
<path d="M1961 1783 c0 -4 4 -17 9 -28 8 -19 9 -19 9 2 1 12 -3 25 -9 28 -5 3
-10 3 -9 -2z"/>
<path d="M4021 1644 c0 -11 3 -14 6 -6 3 7 2 16 -1 19 -3 4 -6 -2 -5 -13z"/>
<path d="M3964 1595 c3 -8 8 -45 12 -80 4 -36 9 -63 12 -61 9 9 -10 156 -20
156 -6 0 -8 -7 -4 -15z"/>
<path d="M4010 1527 c10 -47 20 -59 20 -26 0 14 -6 34 -14 45 -13 17 -14 15
-6 -19z"/>
<path d="M1944 1465 c-10 -41 3 -122 26 -163 22 -40 75 -82 103 -82 10 0 19
-11 22 -27 4 -16 15 -56 26 -91 l19 -63 -31 -27 c-47 -40 -138 -102 -149 -102
-6 0 -10 -5 -10 -11 0 -15 62 24 142 88 46 37 65 59 61 70 -3 8 0 19 8 25 11
8 10 9 -3 4 -14 -4 -21 5 -32 47 -8 29 -16 61 -18 71 -2 11 -16 23 -33 29 -48
15 -94 66 -110 121 -18 60 -19 113 -3 118 9 3 9 6 0 12 -7 4 -14 -3 -18 -19z"/>
<path d="M3996 1425 c10 -25 -16 -100 -47 -138 -16 -20 -45 -41 -64 -47 -29
-9 -35 -17 -41 -48 -4 -20 -15 -61 -26 -91 l-18 -55 46 -42 c26 -23 65 -52 87
-65 22 -13 50 -34 63 -46 13 -12 24 -17 24 -10 0 7 -34 36 -75 65 -41 29 -75
57 -75 62 0 5 -9 12 -20 15 -11 4 -17 11 -14 17 5 7 2 8 -6 3 -10 -6 -11 -2
-7 16 41 157 41 158 68 164 33 8 84 60 103 107 18 42 21 94 6 103 -6 3 -7 -1
-4 -10z"/>
<path d="M1971 1384 c0 -11 3 -14 6 -6 3 7 2 16 -1 19 -3 4 -6 -2 -5 -13z"/>
<path d="M1980 1355 c0 -19 39 -74 62 -85 20 -11 20 -9 -4 12 -14 12 -33 37
-42 53 -8 17 -15 26 -16 20z"/>
<path d="M2079 1247 c5 -5 19 -7 32 -5 20 3 19 5 -9 9 -20 3 -29 2 -23 -4z"/>
<path d="M1970 1205 c-11 -13 -10 -14 4 -9 9 3 16 10 16 15 0 13 -6 11 -20 -6z"/>
<path d="M2136 1147 c9 -27 18 -46 20 -44 5 5 -16 69 -27 82 -5 5 -2 -12 7
-38z"/>
<path d="M2089 967 c-36 -29 -79 -62 -95 -75 l-29 -23 30 18 c30 18 98 68 123
90 7 7 21 17 30 22 9 5 14 12 12 15 -3 3 -35 -18 -71 -47z"/>
<path d="M3976 877 c3 -10 9 -15 12 -12 3 3 0 11 -7 18 -10 9 -11 8 -5 -6z"/>
<path d="M1946 862 c-13 -22 4 -50 42 -69 50 -25 229 -25 285 0 l37 16 32 -42
c17 -23 48 -80 70 -127 22 -47 49 -105 61 -130 32 -69 118 -153 190 -186 l62
-29 255 0 255 0 66 32 c90 44 151 112 200 221 48 105 72 152 110 213 l29 46
40 -13 c135 -47 332 -15 329 53 0 15 -2 14 -11 -4 -25 -51 -176 -70 -301 -37
l-60 15 -24 -28 c-22 -26 -54 -89 -134 -258 -63 -135 -190 -227 -312 -228
-131 -1 -297 6 -291 12 3 3 49 9 102 12 67 5 48 6 -58 3 -172 -4 -200 1 -280
48 -69 42 -113 101 -169 225 -47 103 -125 231 -146 239 -7 3 -28 -2 -46 -10
l-34 -15 42 5 43 5 45 -70 c25 -38 45 -72 45 -75 0 -12 102 -216 111 -221 5
-4 9 -12 9 -18 -1 -24 -33 31 -105 178 -40 83 -83 160 -97 172 -23 22 -25 22
-83 6 -86 -23 -214 -21 -256 3 -18 11 -36 31 -39 44 -4 17 -8 21 -14 12z m687
-493 c33 -21 56 -39 51 -39 -13 0 -94 52 -116 74 -10 10 -18 23 -18 29 0 7 5
4 11 -6 6 -10 38 -36 72 -58z m117 -49 c0 -5 -4 -10 -10 -10 -5 0 -10 5 -10
10 0 6 5 10 10 10 6 0 10 -4 10 -10z m57 -16 c-3 -3 -12 -4 -19 -1 -8 3 -5 6
6 6 11 1 17 -2 13 -5z"/>
<path d="M1983 833 c22 -25 125 -44 182 -34 33 6 24 8 -51 12 -66 4 -100 10
-120 24 -29 18 -29 18 -11 -2z"/>
<path d="M2218 813 c7 -3 16 -2 19 1 4 3 -2 6 -13 5 -11 0 -14 -3 -6 -6z"/>
<path d="M3240 344 c-24 -9 -29 -13 -14 -13 11 -1 29 6 40 14 22 17 20 17 -26
-1z"/>
<path d="M3091 326 c8 -8 88 -10 95 -3 4 4 -17 7 -46 7 -29 0 -51 -2 -49 -4z"/>
<path d="M1507 3 c821 -2 2165 -2 2985 0 821 1 150 2 -1492 2 -1642 0 -2313
-1 -1493 -2z"/>
</g>
</svg>
